<?xml version="1.0" encoding="utf-8"?>
<!-- Generator: Adobe Illustrator 25.3.1, SVG Export Plug-In . SVG Version: 6.00 Build 0)  -->
<svg version="1.1" id="Layer_1" xmlns="http://www.w3.org/2000/svg" xmlns:xlink="http://www.w3.org/1999/xlink" x="0px" y="0px"
	 viewBox="0 0 105.2 33.2" style="enable-background:new 0 0 105.2 33.2;" xml:space="preserve">
<style type="text/css">
	.st0{fill:#15499C;}
</style>
<g>
	<g>
		<g>
			<path class="st0" d="M5.1,8.6h1.5L7,10.3h0.1c0.4-0.6,1-1.1,1.6-1.5c0.7-0.3,1.4-0.5,2.3-0.5c1.8,0,3.2,0.5,4.1,1.6
				c0.9,1.1,1.3,2.8,1.3,5.3c0,1.1-0.2,2.2-0.5,3.1c-0.3,0.9-0.7,1.7-1.3,2.3c-0.5,0.6-1.2,1.1-2,1.5c-0.8,0.3-1.6,0.5-2.6,0.5
				c-0.7,0-1.2,0-1.6-0.1c-0.4-0.1-0.8-0.2-1.3-0.4v5.7H5.1V8.6z M10.6,10.2c-0.9,0-1.7,0.2-2.2,0.7c-0.5,0.5-0.9,1.2-1.1,2.2v6.8
				c0.3,0.3,0.7,0.5,1.1,0.6c0.4,0.1,1,0.2,1.7,0.2c1.3,0,2.3-0.5,3-1.4c0.7-0.9,1.1-2.3,1.1-4.1c0-0.7-0.1-1.4-0.2-2
				s-0.3-1.1-0.6-1.6c-0.3-0.4-0.6-0.8-1.1-1C11.9,10.3,11.3,10.2,10.6,10.2z"/>
			<path class="st0" d="M26.4,10.7c-0.5-0.2-1.1-0.3-1.6-0.3c-0.8,0-1.4,0.2-1.9,0.6c-0.5,0.4-0.7,1-0.8,1.6v9.6h-2.2V8.6h1.5
				l0.4,1.7H22c0.3-0.6,0.8-1.1,1.2-1.4c0.5-0.3,1.1-0.5,1.8-0.5c0.5,0,1.1,0.1,1.8,0.3L26.4,10.7z"/>
			<path class="st0" d="M39.2,21.2c-0.5,0.4-1.2,0.8-2.1,1c-0.8,0.3-1.7,0.4-2.6,0.4c-1,0-1.9-0.2-2.7-0.5c-0.8-0.3-1.4-0.8-1.9-1.4
				s-0.9-1.4-1.1-2.3s-0.4-1.9-0.4-3c0-2.3,0.5-4.1,1.6-5.3c1-1.2,2.5-1.8,4.5-1.8c0.6,0,1.2,0.1,1.9,0.2c0.6,0.1,1.2,0.4,1.7,0.8
				c0.5,0.4,0.9,0.9,1.2,1.6c0.3,0.7,0.5,1.6,0.5,2.8c0,0.6-0.1,1.3-0.2,2h-8.8c0,0.8,0.1,1.5,0.2,2.1s0.4,1.1,0.8,1.6
				c0.3,0.4,0.8,0.8,1.4,1c0.6,0.2,1.2,0.3,2,0.3c0.6,0,1.2-0.1,1.9-0.3c0.6-0.2,1.1-0.5,1.4-0.8L39.2,21.2z M34.5,10.2
				c-1.1,0-1.9,0.3-2.6,0.8c-0.6,0.6-1,1.5-1.2,2.9h6.8c0-1.4-0.3-2.4-0.8-2.9C36.2,10.5,35.4,10.2,34.5,10.2z"/>
			<path class="st0" d="M49.1,18.6c0-0.5-0.2-1-0.5-1.3c-0.3-0.3-0.7-0.6-1.2-0.8c-0.5-0.2-1-0.4-1.6-0.6c-0.6-0.2-1.1-0.4-1.6-0.7
				c-0.5-0.3-0.9-0.7-1.2-1.2c-0.3-0.5-0.5-1.1-0.5-1.9c0-1.3,0.4-2.3,1.1-2.9c0.7-0.6,1.8-0.9,3.1-0.9c1,0,1.8,0.1,2.5,0.3
				c0.7,0.2,1.2,0.4,1.7,0.6L50.4,11c-0.4-0.2-0.9-0.4-1.5-0.5c-0.6-0.2-1.2-0.2-1.9-0.2c-0.8,0-1.4,0.1-1.8,0.4
				c-0.4,0.3-0.6,0.7-0.6,1.4c0,0.5,0.2,0.8,0.5,1.1c0.3,0.3,0.7,0.5,1.2,0.7c0.5,0.2,1,0.4,1.6,0.6c0.6,0.2,1.1,0.5,1.6,0.8
				c0.5,0.3,0.9,0.7,1.2,1.2c0.3,0.5,0.5,1.2,0.5,2c0,0.6-0.1,1.1-0.3,1.6c-0.2,0.5-0.5,0.9-0.9,1.3c-0.4,0.4-0.9,0.7-1.5,0.9
				c-0.6,0.2-1.3,0.3-2.1,0.3c-1,0-1.9-0.1-2.7-0.3c-0.7-0.2-1.3-0.4-1.8-0.7l0.7-1.9c0.4,0.2,1,0.5,1.6,0.7c0.7,0.2,1.4,0.3,2,0.3
				c0.8,0,1.4-0.2,1.9-0.5C48.8,19.9,49.1,19.4,49.1,18.6z"/>
			<path class="st0" d="M64.6,21.2c-0.5,0.4-1.2,0.8-2.1,1c-0.8,0.3-1.7,0.4-2.6,0.4c-1,0-1.9-0.2-2.7-0.5s-1.4-0.8-1.9-1.4
				s-0.9-1.4-1.1-2.3s-0.4-1.9-0.4-3c0-2.3,0.5-4.1,1.6-5.3c1-1.2,2.5-1.8,4.5-1.8c0.6,0,1.2,0.1,1.9,0.2c0.6,0.1,1.2,0.4,1.7,0.8
				c0.5,0.4,0.9,0.9,1.2,1.6c0.3,0.7,0.5,1.6,0.5,2.8c0,0.6-0.1,1.3-0.2,2h-8.8c0,0.8,0.1,1.5,0.2,2.1s0.4,1.1,0.8,1.6
				c0.3,0.4,0.8,0.8,1.4,1c0.6,0.2,1.2,0.3,2,0.3c0.6,0,1.2-0.1,1.9-0.3c0.6-0.2,1.1-0.5,1.4-0.8L64.6,21.2z M59.9,10.2
				c-1.1,0-1.9,0.3-2.6,0.8c-0.6,0.6-1,1.5-1.2,2.9h6.8c0-1.4-0.3-2.4-0.8-2.9C61.6,10.5,60.8,10.2,59.9,10.2z"/>
			<path class="st0" d="M77.2,22.3v-7.8c0-1.4-0.2-2.5-0.6-3.2s-1.2-1.1-2.3-1.1c-1,0-1.8,0.3-2.4,0.8c-0.6,0.5-1.1,1.2-1.3,2v9.3
				h-2.2V8.6H70l0.4,1.7h0.1c0.4-0.6,1-1.1,1.8-1.4c0.7-0.4,1.6-0.6,2.6-0.6c0.7,0,1.4,0.1,2,0.3c0.6,0.2,1,0.5,1.4,0.9
				c0.4,0.4,0.7,1,0.8,1.8s0.3,1.7,0.3,2.8v8.3H77.2z"/>
			<path class="st0" d="M81.6,8.6h2.1V5.9l2.2-0.6v3.3h3.7v1.9h-3.7v7.6c0,0.9,0.1,1.6,0.4,2c0.2,0.4,0.6,0.6,1.2,0.6
				c0.5,0,0.9,0,1.2-0.1c0.3-0.1,0.7-0.2,1.1-0.4l0.5,1.7c-0.5,0.2-1,0.4-1.6,0.6s-1.2,0.2-1.9,0.2c-1.1,0-1.9-0.3-2.3-0.9
				C84,21,83.7,20,83.7,18.5v-8h-2.1V8.6z"/>
			<path class="st0" d="M98.7,18.6c0-0.5-0.2-1-0.5-1.3c-0.3-0.3-0.7-0.6-1.2-0.8s-1-0.4-1.6-0.6c-0.6-0.2-1.1-0.4-1.6-0.7
				c-0.5-0.3-0.9-0.7-1.2-1.2c-0.3-0.5-0.5-1.1-0.5-1.9c0-1.3,0.4-2.3,1.1-2.9s1.8-0.9,3.1-0.9c1,0,1.8,0.1,2.5,0.3
				c0.7,0.2,1.2,0.4,1.7,0.6L100,11c-0.4-0.2-0.9-0.4-1.5-0.5s-1.2-0.2-1.9-0.2c-0.8,0-1.4,0.1-1.8,0.4c-0.4,0.3-0.6,0.7-0.6,1.4
				c0,0.5,0.2,0.8,0.5,1.1s0.7,0.5,1.2,0.7c0.5,0.2,1,0.4,1.6,0.6c0.6,0.2,1.1,0.5,1.6,0.8c0.5,0.3,0.9,0.7,1.2,1.2
				c0.3,0.5,0.5,1.2,0.5,2c0,0.6-0.1,1.1-0.3,1.6c-0.2,0.5-0.5,0.9-0.9,1.3c-0.4,0.4-0.9,0.7-1.5,0.9s-1.3,0.3-2.1,0.3
				c-1,0-1.9-0.1-2.7-0.3s-1.3-0.4-1.8-0.7l0.7-1.9c0.4,0.2,1,0.5,1.6,0.7c0.7,0.2,1.4,0.3,2,0.3c0.8,0,1.4-0.2,1.9-0.5
				C98.4,19.9,98.7,19.4,98.7,18.6z"/>
		</g>
	</g>
</g>
</svg>
