<?xml version="1.0" encoding="utf-8"?>
<!-- Generator: Adobe Illustrator 25.3.1, SVG Export Plug-In . SVG Version: 6.00 Build 0)  -->
<svg version="1.1" id="Layer_1" xmlns="http://www.w3.org/2000/svg" xmlns:xlink="http://www.w3.org/1999/xlink" x="0px" y="0px"
	 viewBox="0 0 288 53.1" style="enable-background:new 0 0 288 53.1;" xml:space="preserve">
<style type="text/css">
	.st0{fill:#15499C;}
</style>
<g>
	<g>
		<g>
			<path class="st0" d="M22,30.8c0-1-0.4-1.9-1.1-2.5c-0.8-0.6-1.7-1.2-2.9-1.8c-1.1-0.5-2.4-1.1-3.7-1.6c-1.3-0.6-2.6-1.3-3.7-2.1
				c-1.1-0.8-2.1-1.8-2.9-3.1C7,18.5,6.6,16.9,6.6,15c0-1.6,0.3-3.1,0.8-4.3c0.5-1.2,1.3-2.2,2.3-3c1-0.8,2.2-1.4,3.6-1.8
				c1.4-0.4,2.9-0.6,4.6-0.6c2,0,3.8,0.2,5.6,0.5c1.7,0.3,3.2,0.8,4.3,1.5l-2.1,5.6c-0.7-0.5-1.8-0.9-3.2-1.2
				c-1.4-0.4-2.9-0.6-4.6-0.6c-1.5,0-2.7,0.3-3.6,0.9c-0.8,0.6-1.2,1.4-1.2,2.5c0,1,0.4,1.8,1.1,2.4c0.8,0.6,1.7,1.2,2.9,1.8
				c1.1,0.5,2.4,1.1,3.7,1.7c1.3,0.6,2.6,1.3,3.7,2.1c1.1,0.8,2.1,1.8,2.9,3c0.8,1.2,1.1,2.7,1.1,4.5c0,1.8-0.3,3.4-0.9,4.7
				c-0.6,1.3-1.4,2.4-2.5,3.3c-1.1,0.9-2.4,1.5-3.9,1.9c-1.5,0.4-3.2,0.6-5,0.6c-2.4,0-4.5-0.2-6.4-0.7c-1.8-0.5-3.2-0.9-4.1-1.4
				L8,32.8c0.4,0.2,0.8,0.4,1.4,0.6c0.6,0.2,1.2,0.4,1.9,0.6c0.7,0.2,1.5,0.4,2.2,0.5c0.8,0.1,1.6,0.2,2.4,0.2c2,0,3.5-0.3,4.5-1
				C21.5,33.1,22,32.1,22,30.8z"/>
			<path class="st0" d="M34,15.7h2.7l0.7,2.9h0.2c0.7-1.1,1.7-2,2.9-2.6c1.2-0.6,2.5-0.9,4-0.9c3.2,0,5.6,1,7.2,2.9
				c1.6,1.9,2.4,5,2.4,9.3c0,2-0.3,3.9-0.8,5.5c-0.5,1.6-1.3,3-2.2,4.1c-1,1.1-2.1,2-3.5,2.6c-1.4,0.6-2.9,0.9-4.6,0.9
				c-1.2,0-2.1-0.1-2.8-0.2c-0.7-0.1-1.4-0.4-2.2-0.7v10H34V15.7z M43.8,18.5c-1.6,0-2.9,0.4-3.9,1.3c-1,0.9-1.6,2.2-2,3.9v12
				c0.6,0.5,1.2,0.8,2,1c0.7,0.2,1.7,0.4,2.9,0.4c2.2,0,4-0.8,5.3-2.5c1.3-1.7,2-4.1,2-7.3c0-1.3-0.1-2.5-0.3-3.6
				c-0.2-1.1-0.6-2-1.1-2.8c-0.5-0.8-1.1-1.3-1.9-1.8C45.9,18.7,44.9,18.5,43.8,18.5z"/>
			<path class="st0" d="M59,27.8c0-4.1,0.9-7.2,2.7-9.4c1.8-2.2,4.4-3.3,7.9-3.3c1.8,0,3.4,0.3,4.7,0.9c1.3,0.6,2.4,1.4,3.3,2.6
				s1.5,2.4,1.9,4c0.4,1.6,0.6,3.3,0.6,5.2c0,4.1-0.9,7.2-2.7,9.4c-1.8,2.2-4.4,3.3-7.9,3.3c-1.8,0-3.4-0.3-4.7-0.9
				c-1.3-0.6-2.4-1.4-3.3-2.6s-1.5-2.4-1.9-4C59.2,31.4,59,29.7,59,27.8z M63,27.8c0,1.2,0.1,2.4,0.4,3.5c0.2,1.1,0.6,2.1,1.1,2.9
				c0.5,0.8,1.2,1.5,2,2c0.8,0.5,1.9,0.8,3,0.8c4.4,0,6.6-3.1,6.6-9.3c0-1.3-0.1-2.4-0.4-3.6c-0.2-1.1-0.6-2.1-1.1-2.9
				c-0.5-0.8-1.2-1.5-2-2c-0.8-0.5-1.9-0.7-3-0.7C65.2,18.5,63,21.5,63,27.8z"/>
			<path class="st0" d="M97.8,19.4c-1-0.3-1.9-0.5-2.8-0.5c-1.4,0-2.5,0.4-3.3,1.1c-0.8,0.8-1.3,1.7-1.5,2.9v16.9h-3.9V15.7h2.7
				l0.7,2.9H90c0.6-1.1,1.3-1.9,2.2-2.5c0.9-0.6,1.9-0.9,3.3-0.9c0.9,0,2,0.2,3.1,0.5L97.8,19.4z"/>
			<path class="st0" d="M101.2,15.7h3.8v-4.8l3.9-1.1v5.9h6.6v3.4h-6.6v13.4c0,1.7,0.2,2.9,0.6,3.6c0.4,0.7,1.1,1,2.1,1
				c0.8,0,1.5-0.1,2.1-0.3c0.6-0.2,1.2-0.4,1.9-0.7l0.9,2.9c-0.9,0.4-1.8,0.8-2.9,1c-1,0.3-2.1,0.4-3.3,0.4c-2,0-3.4-0.6-4.2-1.7
				s-1.2-3-1.2-5.6V19.1h-3.8V15.7z"/>
			<path class="st0" d="M131.5,33.3c0-1-0.3-1.7-0.9-2.3c-0.6-0.5-1.3-1-2.1-1.4c-0.9-0.4-1.8-0.7-2.8-1.1c-1-0.3-1.9-0.8-2.8-1.3
				c-0.9-0.5-1.6-1.2-2.2-2.1c-0.6-0.8-0.9-2-0.9-3.4c0-2.3,0.7-4,2-5.1c1.3-1.1,3.2-1.6,5.5-1.6c1.7,0,3.2,0.2,4.4,0.5
				c1.2,0.3,2.2,0.7,3.1,1.1l-0.9,3.2c-0.7-0.4-1.6-0.7-2.7-0.9c-1-0.3-2.2-0.4-3.4-0.4c-1.4,0-2.5,0.2-3.1,0.7
				c-0.7,0.5-1,1.3-1,2.5c0,0.8,0.3,1.5,0.9,2c0.6,0.5,1.3,0.9,2.2,1.3c0.9,0.4,1.8,0.7,2.8,1.1s1.9,0.8,2.8,1.4
				c0.9,0.6,1.6,1.3,2.1,2.2c0.6,0.9,0.9,2.1,0.9,3.5c0,1-0.2,2-0.5,2.9c-0.3,0.9-0.9,1.7-1.6,2.3c-0.7,0.6-1.6,1.2-2.6,1.5
				c-1,0.4-2.3,0.6-3.7,0.6c-1.8,0-3.4-0.2-4.7-0.5c-1.3-0.4-2.4-0.8-3.2-1.3l1.2-3.3c0.7,0.4,1.7,0.8,2.9,1.2
				c1.2,0.4,2.4,0.5,3.6,0.5c1.4,0,2.5-0.3,3.4-0.8C131.1,35.7,131.5,34.7,131.5,33.3z"/>
			<path class="st0" d="M163.3,13.9c0,0.8-0.1,1.7-0.3,2.5c-0.2,0.8-0.6,1.6-1,2.3c-0.5,0.7-1.1,1.3-1.9,1.8
				c-0.8,0.5-1.7,0.9-2.8,1.2V22c1,0.2,1.9,0.4,2.8,0.8c0.9,0.4,1.6,0.9,2.3,1.6c0.6,0.7,1.2,1.5,1.5,2.5c0.4,1,0.6,2.1,0.6,3.4
				c0,1.7-0.4,3.2-1.1,4.5c-0.7,1.3-1.7,2.3-3,3.1c-1.2,0.8-2.6,1.4-4.2,1.8s-3.2,0.6-4.9,0.6c-0.5,0-1.2,0-2.1,0s-1.8,0-2.8-0.1
				c-1,0-2-0.1-3-0.2s-1.9-0.2-2.8-0.4V6.3c0.6-0.1,1.3-0.2,2.1-0.3c0.8-0.1,1.6-0.2,2.5-0.2c0.9-0.1,1.8-0.1,2.8-0.1
				c1,0,1.9,0,2.8,0c1.6,0,3.1,0.1,4.6,0.4s2.8,0.7,4,1.3c1.2,0.6,2.1,1.5,2.8,2.6C163,10.8,163.3,12.2,163.3,13.9z M149.1,20.2
				c0.5,0,1,0,1.6,0c0.6,0,1.1-0.1,1.5-0.1c1.2-0.4,2.3-1,3.2-1.7c0.9-0.8,1.3-1.8,1.3-3c0-0.8-0.2-1.5-0.5-2.1
				c-0.3-0.5-0.8-1-1.3-1.3c-0.5-0.3-1.1-0.5-1.8-0.7c-0.7-0.1-1.4-0.2-2.1-0.2c-0.8,0-1.6,0-2.3,0c-0.7,0-1.3,0.1-1.6,0.1v8.9
				H149.1z M151.2,34.8c0.8,0,1.6-0.1,2.3-0.3c0.8-0.2,1.4-0.5,2-0.9c0.6-0.4,1-0.9,1.4-1.5c0.4-0.6,0.5-1.3,0.5-2.2
				c0-1.1-0.2-1.9-0.6-2.5s-1-1.1-1.6-1.4c-0.7-0.3-1.4-0.6-2.3-0.6c-0.8-0.1-1.7-0.1-2.5-0.1h-3.5v9.2c0.2,0.1,0.4,0.1,0.8,0.1
				c0.4,0,0.7,0.1,1.1,0.1c0.4,0,0.8,0,1.3,0C150.5,34.8,150.9,34.8,151.2,34.8z"/>
			<path class="st0" d="M173.6,15.7v13.8c0,1.3,0.1,2.4,0.2,3.3c0.1,1,0.4,1.7,0.7,2.4s0.8,1.1,1.5,1.4c0.6,0.3,1.4,0.5,2.3,0.5
				c0.9,0,1.6-0.1,2.3-0.4c0.7-0.3,1.3-0.7,1.8-1.1c0.5-0.5,1-1,1.4-1.7s0.7-1.3,1-2V15.7h3.9V33c0,1.2,0,2.4,0.1,3.6
				c0.1,1.2,0.2,2.3,0.4,3.3h-2.7l-1-3.8h-0.2c-0.7,1.3-1.7,2.3-3,3.1c-1.3,0.8-2.9,1.3-4.8,1.3c-1.3,0-2.4-0.2-3.4-0.5
				s-1.8-0.8-2.5-1.6c-0.7-0.8-1.2-1.8-1.5-3.1c-0.3-1.3-0.5-3-0.5-5V15.7H173.6z"/>
			<path class="st0" d="M196.3,6h3.9v12h0.2c0.7-0.9,1.7-1.7,2.8-2.2c1.1-0.5,2.4-0.8,3.7-0.8c3.1,0,5.5,1,7,3
				c1.6,2,2.3,5.1,2.3,9.3c0,4.2-1,7.4-3.1,9.6c-2.1,2.2-5,3.3-8.7,3.3c-1.8,0-3.4-0.2-4.9-0.6c-1.5-0.4-2.6-0.8-3.3-1.3V6z
				 M206.2,18.5c-1.6,0-2.9,0.5-3.9,1.4c-1,0.9-1.7,2.2-2.2,3.8v12.2c0.6,0.4,1.4,0.6,2.2,0.8c0.9,0.2,1.8,0.3,2.7,0.3
				c2.2,0,3.9-0.8,5.2-2.3s2-4,2-7.2c0-1.3-0.1-2.4-0.3-3.5c-0.2-1.1-0.6-2-1.1-2.8c-0.5-0.8-1.1-1.4-1.9-1.8S207.3,18.5,206.2,18.5
				z"/>
			<path class="st0" d="M222.5,6h3.9v12h0.2c0.7-0.9,1.7-1.7,2.8-2.2c1.1-0.5,2.4-0.8,3.7-0.8c3.1,0,5.5,1,7,3
				c1.6,2,2.3,5.1,2.3,9.3c0,4.2-1,7.4-3.1,9.6c-2.1,2.2-5,3.3-8.7,3.3c-1.8,0-3.4-0.2-4.9-0.6c-1.5-0.4-2.6-0.8-3.3-1.3V6z
				 M232.5,18.5c-1.6,0-2.9,0.5-3.9,1.4c-1,0.9-1.7,2.2-2.2,3.8v12.2c0.6,0.4,1.4,0.6,2.2,0.8c0.9,0.2,1.8,0.3,2.7,0.3
				c2.2,0,3.9-0.8,5.2-2.3s2-4,2-7.2c0-1.3-0.1-2.4-0.3-3.5c-0.2-1.1-0.6-2-1.1-2.8c-0.5-0.8-1.1-1.4-1.9-1.8S233.5,18.5,232.5,18.5
				z"/>
			<path class="st0" d="M253,33.9c0,1.1,0.2,1.9,0.6,2.4c0.4,0.5,0.9,0.7,1.6,0.7c0.4,0,0.9,0,1.4-0.1c0.5-0.1,1-0.2,1.6-0.4l0.4,3
				c-0.5,0.3-1.2,0.5-2.2,0.6c-0.9,0.2-1.7,0.2-2.4,0.2c-1.4,0-2.6-0.4-3.6-1.2c-0.9-0.8-1.4-2.2-1.4-4.2V6h3.9V33.9z"/>
			<path class="st0" d="M280.6,37.9c-1,0.8-2.2,1.4-3.6,1.8c-1.5,0.5-3,0.7-4.7,0.7c-1.8,0-3.4-0.3-4.8-0.9
				c-1.4-0.6-2.5-1.4-3.3-2.6c-0.9-1.1-1.5-2.4-1.9-4c-0.4-1.5-0.6-3.3-0.6-5.2c0-4.1,0.9-7.3,2.8-9.4c1.8-2.2,4.5-3.2,7.9-3.2
				c1.1,0,2.2,0.1,3.3,0.4c1.1,0.2,2.1,0.7,2.9,1.4c0.9,0.7,1.6,1.6,2.1,2.9c0.5,1.2,0.8,2.9,0.8,4.9c0,1.1-0.1,2.2-0.3,3.5h-15.5
				c0,1.4,0.1,2.7,0.4,3.8c0.3,1.1,0.7,2,1.4,2.8s1.4,1.3,2.4,1.7c1,0.4,2.2,0.6,3.6,0.6c1.1,0,2.2-0.2,3.3-0.6
				c1.1-0.4,1.9-0.8,2.5-1.4L280.6,37.9z M272.3,18.5c-1.9,0-3.4,0.5-4.6,1.5c-1.1,1-1.8,2.7-2.1,5.1h12c0-2.4-0.5-4.2-1.4-5.1
				S274,18.5,272.3,18.5z"/>
		</g>
	</g>
</g>
</svg>
