<svg id="Layer_1" data-name="Layer 1" xmlns="http://www.w3.org/2000/svg" xmlns:xlink="http://www.w3.org/1999/xlink" viewBox="0 0 1000 1000"><defs><style>.cls-1{fill:url(#radial-gradient);}.cls-2{fill:#69a833;}.cls-3{fill:#fff;}.cls-4{fill:#0445a1;}</style><radialGradient id="radial-gradient" cx="733.1" cy="351.64" r="228.19" gradientTransform="translate(517.71 -325.61) rotate(45)" gradientUnits="userSpaceOnUse"><stop offset="0" stop-color="#1b55d0"/><stop offset="0.29" stop-color="#164fba"/><stop offset="0.56" stop-color="#0445a1"/><stop offset="1" stop-color="#062872"/></radialGradient></defs><title>WatchSports - Main logo - with tagline</title><circle class="cls-1" cx="651.9" cy="462.12" r="185.24" transform="translate(-135.83 596.32) rotate(-45)"/><path class="cls-2" d="M681.63,553.64l139.26-78.13a15.42,15.42,0,0,0,0-26.78L681.63,370.6c-10-5.62-22.3,1.75-22.3,13.39V540.25C659.33,551.89,671.61,559.26,681.63,553.64Z"/><path class="cls-3" d="M519.93,469.16a5.63,5.63,0,0,0-2.58-4.87,31.39,31.39,0,0,0-6.42-3.29c-2.55-1-5.32-2-8.31-3a36.31,36.31,0,0,1-8.3-4,22.68,22.68,0,0,1-6.42-6.27,17.14,17.14,0,0,1-2.59-9.85,21.36,21.36,0,0,1,1.84-9.1,17.13,17.13,0,0,1,5.18-6.46,23.2,23.2,0,0,1,8.06-3.83,39.3,39.3,0,0,1,10.39-1.3,65.8,65.8,0,0,1,12.48,1.15,33.16,33.16,0,0,1,9.7,3.23L528.29,434a23.77,23.77,0,0,0-3-1.45,29.07,29.07,0,0,0-4.22-1.29c-1.59-.36-3.28-.66-5.08-.9a42.85,42.85,0,0,0-5.47-.34q-5,0-7.71,1.74a5.44,5.44,0,0,0-2.73,4.82,5.76,5.76,0,0,0,2.58,4.93,31.86,31.86,0,0,0,6.42,3.38c2.55,1,5.32,2.05,8.31,3.08a39.47,39.47,0,0,1,8.3,4,22.84,22.84,0,0,1,6.42,6.12,16.08,16.08,0,0,1,2.59,9.45,22.91,22.91,0,0,1-2,9.95,18.4,18.4,0,0,1-5.62,6.91,24.08,24.08,0,0,1-8.7,4,45.18,45.18,0,0,1-11.14,1.29,62.74,62.74,0,0,1-7.71-.45c-2.42-.29-4.66-.66-6.71-1.09a53.47,53.47,0,0,1-5.42-1.39,28,28,0,0,1-3.74-1.44l4.88-12.44a21.72,21.72,0,0,0,3,1.29c1.3.47,2.74.92,4.33,1.35a42.85,42.85,0,0,0,5.12,1,37.76,37.76,0,0,0,5.52.4q6.57,0,10-1.89A6.25,6.25,0,0,0,519.93,469.16Z"/><path class="cls-3" d="M544.8,436H551l1.79,6.67h.89a18.37,18.37,0,0,1,7-6,21.36,21.36,0,0,1,9.65-2.14q11.34,0,16.91,6.32T592.75,461a36.14,36.14,0,0,1-1.84,11.89,25.54,25.54,0,0,1-5.27,9.05,22.72,22.72,0,0,1-8.36,5.72,29,29,0,0,1-11,2q-2,0-3.63-.15a20.34,20.34,0,0,1-3-.49c-.93-.24-1.85-.5-2.78-.8s-1.89-.65-2.89-1v21H544.8Zm23.28,6.27q-5.93,0-9.29,3T554,454.44v24.07a19.43,19.43,0,0,0,4.94,2.49,22,22,0,0,0,6.82.89q8,0,12.55-5.27t4.54-15.72q0-8.44-3.36-13.52T568.08,442.3Z"/><path class="cls-3" d="M602.69,462.2a36.79,36.79,0,0,1,1.7-11.59,23.53,23.53,0,0,1,5-8.71,21.66,21.66,0,0,1,8-5.47,28.85,28.85,0,0,1,10.79-1.89,27.64,27.64,0,0,1,11.14,2.09,21.61,21.61,0,0,1,8,5.82A24.44,24.44,0,0,1,652,451.2a37.64,37.64,0,0,1,1.54,11,35.19,35.19,0,0,1-1.74,11.44,24.8,24.8,0,0,1-5,8.65,21,21,0,0,1-8,5.47,28.57,28.57,0,0,1-10.69,1.89,28,28,0,0,1-11.34-2.09,21.48,21.48,0,0,1-7.91-5.77,24,24,0,0,1-4.67-8.7A36.89,36.89,0,0,1,602.69,462.2Zm9.95,0a31,31,0,0,0,.84,7.21,19,19,0,0,0,2.7,6.32A14.22,14.22,0,0,0,621,480.2a14.38,14.38,0,0,0,7.27,1.69q15.32,0,15.32-19.69a33.06,33.06,0,0,0-.83-7.46,19,19,0,0,0-2.66-6.32,13.52,13.52,0,0,0-11.83-6.12q-7.66,0-11.64,4.93T612.64,462.2Z"/><path class="cls-3" d="M693.52,444.69c-1.13-.28-2.23-.53-3.29-.76a14.73,14.73,0,0,0-3-.34c-3.52,0-6.25.9-8.21,2.68a11.53,11.53,0,0,0-3.63,6.73v35.26h-9.15V436h6.37l1.79,7h.89a19,19,0,0,1,5.33-6,12.82,12.82,0,0,1,7.6-2.14,26.84,26.84,0,0,1,3.29.25,22.34,22.34,0,0,1,3.78.85Z"/><path class="cls-3" d="M706.64,436h8.86V425.49l9.15-2.39V436h15.72v7.76H724.65v26.66q0,6.27,1.59,8.86c1.06,1.72,2.89,2.58,5.47,2.58a17.7,17.7,0,0,0,4.53-.54q2-.56,4.63-1.45l2.09,6.47a45.92,45.92,0,0,1-6.82,2.34,30.9,30.9,0,0,1-7.81.94q-7,0-9.9-3.78t-2.93-12.33V443.79h-8.86Z"/><path class="cls-3" d="M777.67,473.64a5.67,5.67,0,0,0-.94-3.34,8.16,8.16,0,0,0-2.54-2.28,19.31,19.31,0,0,0-3.68-1.65c-1.39-.46-2.85-.92-4.38-1.39q-2.88-.8-5.82-1.74a19.73,19.73,0,0,1-5.27-2.58,13.21,13.21,0,0,1-3.83-4.23,13.06,13.06,0,0,1-1.49-6.57q0-7.75,4.62-11.54t13-3.78a39.56,39.56,0,0,1,10.54,1.2,57.31,57.31,0,0,1,7.46,2.58l-2.19,7.76a56.08,56.08,0,0,0-6.41-2.53,25.8,25.8,0,0,0-8.21-1.25q-4.87,0-7.26,1.59t-2.39,5.77a4.45,4.45,0,0,0,.9,2.84,7.89,7.89,0,0,0,2.38,2,19.27,19.27,0,0,0,3.49,1.49c1.32.43,2.71.85,4.17,1.24,2,.53,4,1.15,6,1.84a22.38,22.38,0,0,1,5.47,2.79,13.6,13.6,0,0,1,4,4.43,13.39,13.39,0,0,1,1.54,6.76,15.62,15.62,0,0,1-5,12q-5,4.62-14.92,4.62a42.34,42.34,0,0,1-11.09-1.29,39.15,39.15,0,0,1-7.91-3l2.59-8a48.4,48.4,0,0,0,7.16,3,27.09,27.09,0,0,0,8.85,1.49,16.39,16.39,0,0,0,8-1.74Q777.68,478.41,777.67,473.64Z"/><path class="cls-4" d="M188.46,456.93l1.39,12.33h.4l1.59-12.53,13.23-38.1h9.55l13,38.3,1.59,12.33h.5l1.49-12.53,9.25-38.1H255.6l-20.89,70.13h-9.94l-13.53-37.9-1.79-10.75h-.7L207,451l-13.43,37.8H183.08l-20.79-70.13h16.12Z"/><path class="cls-4" d="M261.77,439.32q9-4.27,22.18-4.28a24.89,24.89,0,0,1,9.6,1.54,14.54,14.54,0,0,1,5.62,3.93,12.35,12.35,0,0,1,2.64,5.32,27.11,27.11,0,0,1,.65,5.82c0,3.65-.14,7.31-.4,11s-.4,7.68-.4,12q0,3.78.35,7.31a40.67,40.67,0,0,0,1.14,6.52h-6.66l-2.49-8h-1a22.59,22.59,0,0,1-2.68,3,17.32,17.32,0,0,1-3.78,2.74,23.77,23.77,0,0,1-5,2,24.24,24.24,0,0,1-6.52.8,20.84,20.84,0,0,1-6.76-1.05,16.16,16.16,0,0,1-5.33-2.93,13.5,13.5,0,0,1-3.53-4.63,14.15,14.15,0,0,1-1.29-6.12,15,15,0,0,1,1.94-7.76,16.76,16.76,0,0,1,5-5.37,22,22,0,0,1,7-3.08,31.85,31.85,0,0,1,7.8-1c2.06,0,3.8,0,5.23.1s2.62.15,3.58.25,1.77.2,2.44.3l1.79.25c.13-1,.23-1.86.3-2.59s.09-1.65.09-2.78a15.69,15.69,0,0,0-.59-4.68,6.45,6.45,0,0,0-1.94-3,8.25,8.25,0,0,0-3.63-1.64,26.84,26.84,0,0,0-5.57-.5,32.32,32.32,0,0,0-4.18.3,43.08,43.08,0,0,0-9.1,2.19,34.48,34.48,0,0,0-4,1.69Zm31.14,25.26a16.48,16.48,0,0,1-1.68-.29A14.06,14.06,0,0,0,289,464c-.89-.07-1.94-.13-3.16-.2s-2.71-.1-4.49-.1q-6.12,0-9.72,2.19c-2.4,1.46-3.6,3.94-3.6,7.46a6.85,6.85,0,0,0,2.81,6,12.3,12.3,0,0,0,7.25,2,18,18,0,0,0,5.78-.85,17.69,17.69,0,0,0,4.34-2.09,12,12,0,0,0,3-2.78,14.12,14.12,0,0,0,1.73-3Z"/><path class="cls-4" d="M311.9,436h8.86V425.49l9.15-2.39V436h15.72v7.76H329.91v26.66q0,6.27,1.59,8.86c1.06,1.72,2.89,2.58,5.47,2.58a17.7,17.7,0,0,0,4.53-.54q2-.56,4.62-1.45l2.09,6.47a45.39,45.39,0,0,1-6.81,2.34,30.9,30.9,0,0,1-7.81.94q-7,0-9.9-3.78t-2.93-12.33V443.79H311.9Z"/><path class="cls-4" d="M394.87,484.68a24.85,24.85,0,0,1-8.16,3.73,38.14,38.14,0,0,1-9.85,1.24,28.24,28.24,0,0,1-11.19-2,19.08,19.08,0,0,1-7.51-5.57,22.52,22.52,0,0,1-4.18-8.65,45.6,45.6,0,0,1-1.29-11.24q0-13.23,6.42-20.44t18.45-7.22a39,39,0,0,1,9.15.95,39.39,39.39,0,0,1,7,2.34l-2.37,7.46a26.59,26.59,0,0,0-5.78-2.19,27.32,27.32,0,0,0-6.77-.8q-16.11,0-16.11,19.9a29.45,29.45,0,0,0,.89,7.31,18.17,18.17,0,0,0,2.87,6.27,14.62,14.62,0,0,0,5.18,4.42,16.74,16.74,0,0,0,7.87,1.69,21.08,21.08,0,0,0,7.26-1.14A19.15,19.15,0,0,0,391.9,478Z"/><path class="cls-4" d="M443.21,488.26V459.41a44.25,44.25,0,0,0-.54-7.41,13.1,13.1,0,0,0-2-5.22,8.65,8.65,0,0,0-3.88-3.09,16.4,16.4,0,0,0-6.12-1,15,15,0,0,0-5.07.89,17.09,17.09,0,0,0-4.58,2.49,15.81,15.81,0,0,0-5.77,8.86v33.32h-9.15V418.63h9.15V442.5h1.09a23.26,23.26,0,0,1,7.17-5.77,22.07,22.07,0,0,1,10.34-2.19,28.75,28.75,0,0,1,8.26,1,12,12,0,0,1,5.77,3.68,16.8,16.8,0,0,1,3.38,7.06,47.19,47.19,0,0,1,1.09,11.09v30.84Z"/><path class="cls-4" d="M185.54,722.34H162.29V688.59h7.14v27.48h16.11Z"/><path class="cls-4" d="M208.59,691.62A3.41,3.41,0,0,1,209.7,689a4.41,4.41,0,0,1,3.13-1,4.78,4.78,0,0,1,3.28,1.06,3.31,3.31,0,0,1,1.21,2.55,3.09,3.09,0,0,1-1.21,2.42,5,5,0,0,1-3.28,1,4.5,4.5,0,0,1-3.13-1A3.17,3.17,0,0,1,208.59,691.62Zm1,5.41h6.75v25.31H209.6Z"/><path class="cls-4" d="M252.28,710.14l1,3.91h.77l.73-4,4.72-13h7.28l-11.57,25.55h-3.86L239.31,697h7.86Z"/><path class="cls-4" d="M310.24,720a14.6,14.6,0,0,1-4.46,2.14,19.8,19.8,0,0,1-6,.9q-6.51,0-9.55-3.57t-3-9.79q0-6.62,3.43-10t9.64-3.4a15.9,15.9,0,0,1,4,.51,9.67,9.67,0,0,1,3.52,1.69,8.43,8.43,0,0,1,2.49,3.18,11.67,11.67,0,0,1,.94,4.94q0,1-.12,2.22a22.17,22.17,0,0,1-.41,2.51H293.75a7.15,7.15,0,0,0,1.9,4.84q1.67,1.57,5.43,1.57a12.56,12.56,0,0,0,6.85-2Zm-10.13-18.42a5.66,5.66,0,0,0-4.43,1.61,7,7,0,0,0-1.69,4.13h10.9a6,6,0,0,0-1-4.2A4.45,4.45,0,0,0,300.11,701.61Z"/><path class="cls-4" d="M368.78,688.59h21.75v6.27H375.92v7.33h13.26v6.26H375.92v7.62h14.85v6.27h-22Z"/><path class="cls-4" d="M424.63,710.14l1,3.91h.77l.72-4,4.73-13h7.28l-11.57,25.55h-3.86L411.65,697h7.87Z"/><path class="cls-4" d="M482.59,720a14.6,14.6,0,0,1-4.46,2.14,19.8,19.8,0,0,1-6.05.9q-6.51,0-9.55-3.57t-3-9.79q0-6.62,3.43-10t9.64-3.4a16,16,0,0,1,4,.51,9.67,9.67,0,0,1,3.52,1.69,8.43,8.43,0,0,1,2.49,3.18,11.67,11.67,0,0,1,.94,4.94q0,1-.12,2.22a22.17,22.17,0,0,1-.41,2.51H466.1a7.1,7.1,0,0,0,1.9,4.84q1.67,1.57,5.43,1.57a12.56,12.56,0,0,0,6.85-2Zm-10.13-18.42a5.66,5.66,0,0,0-4.43,1.61,7,7,0,0,0-1.69,4.13h10.9a6,6,0,0,0-1-4.2A4.45,4.45,0,0,0,472.46,701.61Z"/><path class="cls-4" d="M525.94,722.34V708.45a8.4,8.4,0,0,0-1-4.72c-.67-1-1.86-1.45-3.57-1.45a5.9,5.9,0,0,0-3.69,1.18,6,6,0,0,0-2.09,3c0,2.63,0,5.28,0,7.93s0,5.3,0,7.93h-6.75V697h5.31l.72,3.61h.72a11.18,11.18,0,0,1,3.33-3.06,10.18,10.18,0,0,1,5.4-1.28,11.68,11.68,0,0,1,3.6.51,5.59,5.59,0,0,1,2.6,1.73,8.52,8.52,0,0,1,1.59,3.31,20.57,20.57,0,0,1,.55,5.21v15.28Z"/><path class="cls-4" d="M555.84,697h3.86v-3.48l6.75-1.78V697h6.8v5.64h-6.8v8.77a11.48,11.48,0,0,0,.6,4.37,2.37,2.37,0,0,0,2.39,1.32,9.15,9.15,0,0,0,1.88-.16,8.86,8.86,0,0,0,1.64-.56l1.4,5.06a21.31,21.31,0,0,1-3.54,1.16,16.69,16.69,0,0,1-3.89.48c-2.5,0-4.34-.62-5.49-1.85s-1.74-3.23-1.74-6V702.67h-3.86Z"/><path class="cls-4" d="M642.06,704.6h13.8v15.14a12,12,0,0,1-2.44,1.47,18.93,18.93,0,0,1-2.8,1,20,20,0,0,1-3,.6,24.24,24.24,0,0,1-3,.2,20,20,0,0,1-6.48-1,13.88,13.88,0,0,1-5.26-3.15,14.68,14.68,0,0,1-3.52-5.48,22.08,22.08,0,0,1-1.28-7.91,19.44,19.44,0,0,1,1.54-8.12,15.52,15.52,0,0,1,4-5.45,15.72,15.72,0,0,1,5.55-3,20.56,20.56,0,0,1,6.1-.94,29.13,29.13,0,0,1,5.52.46,32.3,32.3,0,0,1,3.74.89l-1.5,5.93a20.42,20.42,0,0,0-2.94-.72,24.47,24.47,0,0,0-4.1-.29,13.64,13.64,0,0,0-4.15.6,8.5,8.5,0,0,0-3.28,2,9,9,0,0,0-2.17,3.52,15.85,15.85,0,0,0-.77,5.25,15.06,15.06,0,0,0,.77,5.11,9.9,9.9,0,0,0,2.1,3.5,8,8,0,0,0,3.06,2,10.68,10.68,0,0,0,3.67.63,12.54,12.54,0,0,0,2.63-.29,6.24,6.24,0,0,0,2.24-.92v-5.83l-8-.77Z"/><path class="cls-4" d="M687.49,697v14a9.19,9.19,0,0,0,.87,4.58c.58,1,1.69,1.45,3.33,1.45a5.66,5.66,0,0,0,3.56-1.11,6.47,6.47,0,0,0,2.13-2.8V697h6.75v17.6a39.24,39.24,0,0,0,.21,4,30.3,30.3,0,0,0,.61,3.66h-5l-1.3-4h-.53a9.87,9.87,0,0,1-3.57,3.35,10.52,10.52,0,0,1-5.31,1.33,11.66,11.66,0,0,1-3.66-.53,6.16,6.16,0,0,1-2.68-1.76,8.13,8.13,0,0,1-1.64-3.26,19.31,19.31,0,0,1-.55-5V697Z"/><path class="cls-4" d="M730.8,691.62a3.4,3.4,0,0,1,1.1-2.58,4.44,4.44,0,0,1,3.14-1,4.79,4.79,0,0,1,3.28,1.06,3.3,3.3,0,0,1,1.2,2.55,3.08,3.08,0,0,1-1.2,2.42,5,5,0,0,1-3.28,1,4.52,4.52,0,0,1-3.14-1A3.16,3.16,0,0,1,730.8,691.62Zm1,5.41h6.75v25.31h-6.75Z"/><path class="cls-4" d="M788.62,713.47c0,1.35,0,2.75,0,4.19a38.37,38.37,0,0,0,.44,4.73h-4.68l-1-3.52h-.63a8,8,0,0,1-3.16,3.06,11.26,11.26,0,0,1-12.76-2q-2.79-3.17-2.79-9.77a19.34,19.34,0,0,1,.79-5.74,11.75,11.75,0,0,1,2.37-4.34,10.47,10.47,0,0,1,3.88-2.75,15.57,15.57,0,0,1,8.27-.69,22.91,22.91,0,0,1,2.43.65v-8.68h6.76Zm-12.11,3.95a5.37,5.37,0,0,0,3.52-1,5.86,5.86,0,0,0,1.83-3V703.29a5.9,5.9,0,0,0-1.85-1,8.69,8.69,0,0,0-2.58-.32,5.89,5.89,0,0,0-4.8,1.88q-1.57,1.89-1.57,6.46a8.93,8.93,0,0,0,1.33,5.14A4.63,4.63,0,0,0,776.51,717.42Z"/><path class="cls-4" d="M836.79,720a14.6,14.6,0,0,1-4.46,2.14,19.8,19.8,0,0,1-6.05.9q-6.51,0-9.55-3.57t-3-9.79q0-6.62,3.43-10t9.64-3.4a16,16,0,0,1,4,.51,9.67,9.67,0,0,1,3.52,1.69,8.43,8.43,0,0,1,2.49,3.18,11.67,11.67,0,0,1,.94,4.94q0,1-.12,2.22a22.17,22.17,0,0,1-.41,2.51H820.3a7.1,7.1,0,0,0,1.9,4.84q1.66,1.57,5.43,1.57a12.56,12.56,0,0,0,6.85-2Zm-10.13-18.42a5.66,5.66,0,0,0-4.43,1.61,7,7,0,0,0-1.69,4.13h10.9a6.09,6.09,0,0,0-1-4.2A4.45,4.45,0,0,0,826.66,701.61Z"/></svg>