<?xml version="1.0" encoding="utf-8"?>
<!-- Generator: Adobe Illustrator 25.3.1, SVG Export Plug-In . SVG Version: 6.00 Build 0)  -->
<svg version="1.1" id="Layer_1" xmlns="http://www.w3.org/2000/svg" xmlns:xlink="http://www.w3.org/1999/xlink" x="0px" y="0px"
	 viewBox="0 0 311.3 177" style="enable-background:new 0 0 311.3 177;" xml:space="preserve">
<style type="text/css">
	.st0{fill:url(#SVGID_1_);}
	.st1{fill:#69A833;}
	.st2{fill:#FFFFFF;}
	.st3{fill:#0445A1;}
	.st4{fill:#15489C;}
</style>
<g>
	<radialGradient id="SVGID_1_" cx="260.6851" cy="38.2663" r="103.0767" gradientUnits="userSpaceOnUse">
		<stop  offset="0" style="stop-color:#1B55D0"/>
		<stop  offset="0.2928" style="stop-color:#164FBA"/>
		<stop  offset="0.5596" style="stop-color:#0445A1"/>
		<stop  offset="1" style="stop-color:#062872"/>
	</radialGradient>
	<circle class="st0" cx="224" cy="88.2" r="83.7"/>
	<g>
		<g>
			<g>
				<path class="st1" d="M237.3,128.1l61.8-34.7c4.6-2.6,4.6-9.3,0-11.9l-61.8-34.7c-4.4-2.5-9.9,0.8-9.9,5.9v69.4
					C227.4,127.3,232.9,130.6,237.3,128.1z"/>
			</g>
		</g>
	</g>
	<g>
		<path class="st2" d="M164.1,91.2c0-0.9-0.4-1.7-1.2-2.2c-0.8-0.5-1.8-1-2.9-1.5c-1.2-0.5-2.4-0.9-3.8-1.4
			c-1.4-0.5-2.6-1.1-3.8-1.8c-1.2-0.8-2.1-1.7-2.9-2.9c-0.8-1.2-1.2-2.7-1.2-4.5c0-1.6,0.3-3,0.8-4.2c0.6-1.2,1.3-2.2,2.3-3
			c1-0.8,2.2-1.4,3.7-1.8c1.4-0.4,3-0.6,4.7-0.6c2,0,3.9,0.2,5.7,0.5c1.8,0.3,3.3,0.8,4.4,1.5l-2.1,5.6c-0.4-0.2-0.8-0.4-1.4-0.7
			c-0.6-0.2-1.2-0.4-1.9-0.6c-0.7-0.2-1.5-0.3-2.3-0.4c-0.8-0.1-1.6-0.2-2.5-0.2c-1.5,0-2.7,0.3-3.5,0.8c-0.8,0.5-1.2,1.3-1.2,2.2
			c0,0.9,0.4,1.7,1.2,2.3c0.8,0.6,1.8,1.1,2.9,1.5c1.2,0.5,2.4,0.9,3.8,1.4c1.4,0.5,2.6,1.1,3.8,1.8c1.2,0.7,2.1,1.7,2.9,2.8
			c0.8,1.1,1.2,2.6,1.2,4.3c0,1.8-0.3,3.3-0.9,4.6c-0.6,1.3-1.5,2.3-2.5,3.2c-1.1,0.8-2.4,1.5-3.9,1.8c-1.5,0.4-3.2,0.6-5.1,0.6
			c-1.2,0-2.4-0.1-3.5-0.2c-1.1-0.1-2.1-0.3-3-0.5c-0.9-0.2-1.8-0.4-2.5-0.6c-0.7-0.2-1.3-0.4-1.7-0.7l2.2-5.7
			c0.3,0.2,0.8,0.4,1.4,0.6c0.6,0.2,1.2,0.4,2,0.6c0.7,0.2,1.5,0.4,2.3,0.5c0.8,0.1,1.7,0.2,2.5,0.2c2,0,3.5-0.3,4.5-0.9
			C163.6,93.3,164.1,92.4,164.1,91.2z"/>
		<path class="st2" d="M175.4,76h2.8L179,79h0.4c0.8-1.2,1.9-2.1,3.2-2.8c1.3-0.7,2.8-1,4.4-1c3.4,0,6,1,7.7,2.9
			c1.7,1.9,2.5,5,2.5,9.2c0,2-0.3,3.8-0.8,5.4c-0.6,1.6-1.4,3-2.4,4.1c-1,1.1-2.3,2-3.8,2.6c-1.5,0.6-3.2,0.9-5,0.9
			c-0.6,0-1.2,0-1.6-0.1c-0.5,0-1-0.1-1.4-0.2c-0.4-0.1-0.8-0.2-1.3-0.4c-0.4-0.1-0.9-0.3-1.3-0.5v9.6h-4.1V76z M185.9,78.9
			c-1.8,0-3.2,0.5-4.2,1.4c-1,0.9-1.7,2.3-2.2,4.2v11c0.7,0.5,1.4,0.9,2.2,1.1c0.8,0.3,1.8,0.4,3.1,0.4c2.4,0,4.3-0.8,5.7-2.4
			c1.4-1.6,2.1-4,2.1-7.2c0-2.6-0.5-4.6-1.5-6.2C190.1,79.6,188.4,78.9,185.9,78.9z"/>
		<path class="st2" d="M201.6,88c0-2,0.3-3.7,0.8-5.3c0.5-1.6,1.3-2.9,2.3-4c1-1.1,2.2-1.9,3.6-2.5c1.4-0.6,3.1-0.9,4.9-0.9
			c1.9,0,3.6,0.3,5.1,1c1.4,0.6,2.6,1.5,3.6,2.7c1,1.1,1.7,2.5,2.1,4c0.5,1.5,0.7,3.2,0.7,5c0,1.9-0.3,3.7-0.8,5.2
			c-0.5,1.5-1.3,2.9-2.3,4c-1,1.1-2.2,1.9-3.6,2.5c-1.4,0.6-3,0.9-4.8,0.9c-2,0-3.7-0.3-5.1-1c-1.4-0.6-2.6-1.5-3.6-2.6
			c-0.9-1.1-1.7-2.5-2.1-4C201.9,91.4,201.6,89.8,201.6,88z M206.1,88c0,1.1,0.1,2.2,0.4,3.3c0.3,1.1,0.7,2,1.2,2.9
			c0.6,0.9,1.3,1.5,2.2,2.1c0.9,0.5,2,0.8,3.3,0.8c4.6,0,6.9-3,6.9-9c0-1.2-0.1-2.3-0.4-3.4c-0.3-1.1-0.7-2.1-1.2-2.9
			c-0.5-0.8-1.3-1.5-2.2-2c-0.9-0.5-2-0.8-3.2-0.8c-2.3,0-4.1,0.8-5.3,2.3C206.7,82.6,206.1,84.9,206.1,88z"/>
		<path class="st2" d="M242.8,79.9c-0.5-0.1-1-0.2-1.5-0.3c-0.5-0.1-0.9-0.2-1.4-0.2c-1.6,0-2.8,0.4-3.7,1.2
			c-0.9,0.8-1.4,1.8-1.6,3.1v16.1h-4.1V76h2.9l0.8,3.2h0.4c0.7-1.2,1.5-2.1,2.4-2.8c0.9-0.7,2.1-1,3.5-1c0.4,0,0.9,0,1.5,0.1
			c0.6,0.1,1.1,0.2,1.7,0.4L242.8,79.9z"/>
		<path class="st2" d="M248.8,76h4v-4.8l4.1-1.1V76h7.1v3.6h-7.1v12.2c0,1.9,0.2,3.3,0.7,4.1c0.5,0.8,1.3,1.2,2.5,1.2
			c0.8,0,1.4-0.1,2.1-0.3c0.6-0.2,1.3-0.4,2.1-0.7l0.9,3c-1,0.4-2,0.8-3.1,1.1c-1.1,0.3-2.3,0.4-3.5,0.4c-2.1,0-3.6-0.6-4.5-1.7
			c-0.9-1.2-1.3-3-1.3-5.6V79.5h-4V76z"/>
		<path class="st2" d="M281,93.2c0-0.6-0.1-1.1-0.4-1.5c-0.3-0.4-0.7-0.8-1.2-1c-0.5-0.3-1-0.5-1.7-0.8c-0.6-0.2-1.3-0.4-2-0.6
			c-0.9-0.2-1.8-0.5-2.6-0.8c-0.9-0.3-1.7-0.7-2.4-1.2c-0.7-0.5-1.3-1.1-1.7-1.9c-0.5-0.8-0.7-1.8-0.7-3c0-2.4,0.7-4.1,2.1-5.3
			c1.4-1.2,3.4-1.7,5.9-1.7c1.9,0,3.5,0.2,4.8,0.5c1.3,0.4,2.4,0.8,3.4,1.2l-1,3.6c-0.8-0.4-1.8-0.8-2.9-1.2
			c-1.1-0.4-2.4-0.6-3.7-0.6c-1.5,0-2.6,0.2-3.3,0.7c-0.7,0.5-1.1,1.4-1.1,2.6c0,0.5,0.1,0.9,0.4,1.3c0.3,0.3,0.6,0.7,1.1,0.9
			c0.5,0.3,1,0.5,1.6,0.7c0.6,0.2,1.2,0.4,1.9,0.6c0.9,0.2,1.8,0.5,2.7,0.8c0.9,0.3,1.7,0.7,2.5,1.3c0.8,0.5,1.4,1.2,1.8,2
			c0.5,0.8,0.7,1.9,0.7,3.1c0,2.2-0.8,4.1-2.3,5.5c-1.5,1.4-3.8,2.1-6.8,2.1c-1.9,0-3.6-0.2-5-0.6c-1.4-0.4-2.6-0.8-3.6-1.4l1.2-3.6
			c0.8,0.5,1.9,0.9,3.2,1.4c1.3,0.5,2.7,0.7,4,0.7c1.5,0,2.7-0.3,3.6-0.8C280.5,95.7,281,94.7,281,93.2z"/>
	</g>
	<g>
		<path class="st3" d="M15.1,84.6l0.6,5.5h0.2l0.7-5.6l5.9-17.1h4.3l5.9,17.2l0.7,5.5h0.2l0.7-5.6l4.2-17.1h6.8l-9.4,31.5h-4.5
			l-6.1-17L24.5,77h-0.3l-0.8,4.9l-6,17h-4.7L3.3,67.4h7.2L15.1,84.6z"/>
		<path class="st3" d="M48,76.7c2.7-1.3,6-1.9,10-1.9c1.8,0,3.2,0.2,4.3,0.7c1.1,0.5,1.9,1.1,2.5,1.8c0.6,0.7,1,1.5,1.2,2.4
			c0.2,0.9,0.3,1.8,0.3,2.6c0,1.6-0.1,3.3-0.2,4.9c-0.1,1.7-0.2,3.5-0.2,5.4c0,1.1,0.1,2.2,0.2,3.3c0.1,1.1,0.3,2,0.5,2.9h-3
			l-1.1-3.6h-0.4c-0.3,0.4-0.7,0.9-1.2,1.4c-0.5,0.5-1,0.9-1.7,1.2c-0.7,0.4-1.4,0.7-2.3,0.9C56,98.9,55.1,99,54,99
			c-1.1,0-2.1-0.2-3-0.5c-0.9-0.3-1.7-0.8-2.4-1.3c-0.7-0.6-1.2-1.3-1.6-2.1c-0.4-0.8-0.6-1.7-0.6-2.8c0-1.3,0.3-2.5,0.9-3.5
			c0.6-1,1.3-1.8,2.3-2.4c0.9-0.6,2-1.1,3.2-1.4c1.2-0.3,2.3-0.4,3.5-0.4c0.9,0,1.7,0,2.3,0c0.6,0,1.2,0.1,1.6,0.1
			c0.4,0,0.8,0.1,1.1,0.1c0.3,0,0.6,0.1,0.8,0.1c0.1-0.4,0.1-0.8,0.1-1.2c0-0.3,0-0.7,0-1.3c0-0.8-0.1-1.5-0.3-2.1
			c-0.2-0.6-0.5-1-0.9-1.4c-0.4-0.3-0.9-0.6-1.6-0.7c-0.7-0.1-1.5-0.2-2.5-0.2c-0.6,0-1.2,0-1.9,0.1c-0.7,0.1-1.4,0.2-2.1,0.4
			c-0.7,0.2-1.4,0.4-2,0.6c-0.7,0.2-1.3,0.5-1.8,0.8L48,76.7z M62,88c-0.2,0-0.5-0.1-0.8-0.1c-0.3-0.1-0.6-0.1-1-0.1
			c-0.4,0-0.9-0.1-1.4-0.1c-0.5,0-1.2,0-2,0c-1.8,0-3.3,0.3-4.4,1c-1.1,0.7-1.6,1.8-1.6,3.4c0,1.2,0.4,2.1,1.3,2.7
			c0.8,0.6,1.9,0.9,3.3,0.9c1,0,1.8-0.1,2.6-0.4c0.8-0.3,1.4-0.6,2-0.9c0.5-0.4,1-0.8,1.3-1.3c0.3-0.5,0.6-0.9,0.8-1.4V88z"/>
		<path class="st3" d="M70.6,75.2h4v-4.7l4.1-1.1v5.8h7.1v3.5h-7.1v12c0,1.9,0.2,3.2,0.7,4c0.5,0.8,1.3,1.2,2.5,1.2
			c0.7,0,1.4-0.1,2-0.2c0.6-0.2,1.3-0.4,2.1-0.6l0.9,2.9c-1,0.4-2,0.8-3.1,1.1c-1.1,0.3-2.3,0.4-3.5,0.4c-2.1,0-3.6-0.6-4.4-1.7
			c-0.9-1.1-1.3-3-1.3-5.5V78.7h-4V75.2z"/>
		<path class="st3" d="M107.8,97.1c-1,0.7-2.3,1.3-3.7,1.7c-1.4,0.4-2.9,0.6-4.4,0.6c-2,0-3.6-0.3-5-0.9c-1.4-0.6-2.5-1.4-3.4-2.5
			c-0.9-1.1-1.5-2.4-1.9-3.9c-0.4-1.5-0.6-3.2-0.6-5.1c0-4,1-7,2.9-9.2c1.9-2.2,4.7-3.2,8.3-3.2c1.6,0,3,0.1,4.1,0.4
			c1.2,0.3,2.2,0.6,3.1,1.1l-1.1,3.4c-0.8-0.4-1.7-0.7-2.6-1c-0.9-0.2-1.9-0.4-3-0.4c-4.8,0-7.2,3-7.2,8.9c0,1.1,0.1,2.2,0.4,3.3
			c0.3,1.1,0.7,2,1.3,2.8c0.6,0.8,1.4,1.5,2.3,2c1,0.5,2.1,0.8,3.5,0.8c1.2,0,2.3-0.2,3.3-0.5c0.9-0.3,1.7-0.8,2.3-1.2L107.8,97.1z"
			/>
		<path class="st3" d="M129.6,98.7v-13c0-1.3-0.1-2.4-0.2-3.3c-0.2-0.9-0.5-1.7-0.9-2.3c-0.4-0.6-1-1.1-1.7-1.4
			c-0.7-0.3-1.6-0.4-2.8-0.4c-0.8,0-1.5,0.1-2.3,0.4c-0.7,0.3-1.4,0.6-2.1,1.1c-0.6,0.5-1.2,1.1-1.6,1.7c-0.4,0.7-0.8,1.4-1,2.3v15
			h-4.1V67.4h4.1v10.7h0.5c0.9-1.1,2-1.9,3.2-2.6c1.3-0.7,2.8-1,4.7-1c1.4,0,2.7,0.2,3.7,0.5c1,0.3,1.9,0.9,2.6,1.7
			c0.7,0.8,1.2,1.8,1.5,3.2c0.3,1.3,0.5,3,0.5,5v13.9H129.6z"/>
	</g>
	<g>
		<g>
			<path class="st4" d="M19.1,116.1h4.5v5c-0.5,0.4-1.1,0.6-1.7,0.8s-1.3,0.3-2,0.3c-0.8,0-1.5-0.1-2.2-0.3s-1.2-0.6-1.7-1.1
				c-0.5-0.5-0.9-1.1-1.1-1.8c-0.3-0.7-0.4-1.6-0.4-2.6c0-1.1,0.2-2,0.5-2.7s0.8-1.3,1.3-1.8c0.5-0.5,1.1-0.8,1.8-1
				c0.7-0.2,1.4-0.3,2-0.3c0.7,0,1.3,0,1.8,0.1c0.5,0.1,0.9,0.2,1.3,0.3l-0.5,1.8c-0.3-0.1-0.6-0.2-1-0.2s-0.8-0.1-1.4-0.1
				c-0.5,0-1,0.1-1.4,0.2c-0.4,0.1-0.8,0.4-1.1,0.7c-0.3,0.3-0.5,0.7-0.7,1.2c-0.2,0.5-0.3,1.1-0.3,1.8c0,0.7,0.1,1.3,0.2,1.7
				c0.2,0.5,0.4,0.9,0.7,1.2c0.3,0.3,0.6,0.5,1,0.7c0.4,0.1,0.8,0.2,1.2,0.2c0.3,0,0.6,0,0.9-0.1s0.5-0.2,0.7-0.3v-2.1l-2.6-0.3
				V116.1z"/>
			<path class="st4" d="M27.5,113.9v4.6c0,0.7,0.1,1.1,0.3,1.4c0.2,0.3,0.5,0.4,1,0.4c0.4,0,0.8-0.1,1.1-0.4
				c0.3-0.2,0.5-0.5,0.6-0.9v-5.2h2.3v5.6c0,0.4,0,0.9,0.1,1.3c0,0.4,0.1,0.8,0.2,1.1h-1.7l-0.4-1.2h-0.1c-0.3,0.4-0.6,0.7-1.1,1
				c-0.5,0.3-1,0.4-1.7,0.4c-0.4,0-0.8-0.1-1.2-0.2c-0.3-0.1-0.6-0.3-0.9-0.5s-0.4-0.6-0.5-1c-0.1-0.4-0.2-0.9-0.2-1.6v-5H27.5z"/>
			<path class="st4" d="M34.6,111.7c0-0.3,0.1-0.6,0.4-0.8c0.2-0.2,0.6-0.3,1-0.3c0.4,0,0.8,0.1,1.1,0.3c0.3,0.2,0.4,0.5,0.4,0.8
				c0,0.3-0.1,0.6-0.4,0.8c-0.3,0.2-0.6,0.3-1.1,0.3c-0.4,0-0.8-0.1-1-0.3C34.7,112.3,34.6,112,34.6,111.7z M34.9,113.9h2.3v8h-2.3
				V113.9z"/>
			<path class="st4" d="M46.7,119.1c0,0.4,0,0.9,0,1.3c0,0.4,0.1,0.9,0.2,1.5h-1.6l-0.3-1h-0.1c-0.2,0.4-0.6,0.7-1,0.9
				c-0.4,0.2-0.9,0.3-1.5,0.3c-1.1,0-1.9-0.3-2.5-1s-0.9-1.7-0.9-3.1c0-1.4,0.3-2.4,1-3.2s1.7-1.1,2.9-1.1c0.4,0,0.7,0,0.9,0.1
				c0.2,0,0.5,0.1,0.7,0.2v-3.3h2.3V119.1z M42.9,120.4c0.4,0,0.8-0.1,1-0.3c0.3-0.2,0.4-0.5,0.5-0.9v-3.4c-0.2-0.1-0.3-0.2-0.5-0.3
				c-0.2-0.1-0.5-0.1-0.8-0.1c-0.6,0-1.1,0.2-1.4,0.6c-0.3,0.4-0.5,1.1-0.5,2c0,0.7,0.1,1.2,0.4,1.7S42.3,120.4,42.9,120.4z"/>
			<path class="st4" d="M55.7,121.3c-0.3,0.3-0.8,0.5-1.4,0.6s-1.2,0.3-1.9,0.3c-1.4,0-2.4-0.4-3.1-1.1s-1-1.8-1-3.1
				c0-1.4,0.4-2.5,1.1-3.2s1.8-1.1,3.1-1.1c0.4,0,0.9,0.1,1.3,0.2c0.4,0.1,0.8,0.3,1.1,0.5c0.3,0.2,0.6,0.6,0.8,1
				c0.2,0.4,0.3,0.9,0.3,1.6c0,0.2,0,0.5,0,0.7c0,0.3-0.1,0.5-0.1,0.8h-5.2c0,0.7,0.2,1.2,0.6,1.5c0.3,0.3,0.9,0.5,1.7,0.5
				c0.5,0,0.9-0.1,1.3-0.2s0.7-0.3,0.9-0.4L55.7,121.3z M52.4,115.4c-0.6,0-1,0.2-1.3,0.5c-0.3,0.3-0.5,0.8-0.5,1.3h3.2
				c0-0.6,0-1-0.3-1.3C53.3,115.5,52.9,115.4,52.4,115.4z"/>
			<path class="st4" d="M61.7,115.7h2.8V113h2v2.7h2.8v1.8h-2.8v2.7h-2v-2.7h-2.8V115.7z"/>
			<path class="st4" d="M83.5,121.5c-0.4,0.2-0.8,0.4-1.4,0.5c-0.6,0.1-1.2,0.2-1.8,0.2c-0.7,0-1.4-0.1-2.1-0.3
				c-0.7-0.2-1.2-0.5-1.7-1c-0.5-0.5-0.9-1.1-1.2-1.8s-0.4-1.6-0.4-2.7c0-1.1,0.2-2,0.5-2.8s0.8-1.3,1.3-1.8c0.5-0.5,1.1-0.8,1.8-1
				c0.6-0.2,1.3-0.3,1.9-0.3c0.7,0,1.3,0,1.8,0.1c0.5,0.1,0.9,0.2,1.2,0.3l-0.5,1.9c-0.3-0.1-0.6-0.2-0.9-0.3
				c-0.4-0.1-0.8-0.1-1.3-0.1c-1,0-1.7,0.3-2.3,0.9c-0.6,0.6-0.9,1.6-0.9,2.9c0,0.6,0.1,1.1,0.2,1.6c0.1,0.5,0.3,0.9,0.6,1.2
				c0.3,0.3,0.6,0.6,1.1,0.8s0.9,0.3,1.5,0.3c0.5,0,1,0,1.3-0.1c0.4-0.1,0.7-0.2,0.9-0.4L83.5,121.5z"/>
			<path class="st4" d="M83.9,118c0-1.4,0.4-2.4,1.1-3.1c0.7-0.7,1.7-1.1,3-1.1c0.7,0,1.3,0.1,1.8,0.3s0.9,0.5,1.3,0.9
				c0.3,0.4,0.6,0.8,0.8,1.3c0.2,0.5,0.3,1.1,0.3,1.7c0,1.4-0.4,2.4-1.1,3.1s-1.7,1.1-3,1.1c-0.7,0-1.3-0.1-1.8-0.3
				c-0.5-0.2-0.9-0.5-1.3-0.9s-0.6-0.8-0.8-1.3C84,119.2,83.9,118.6,83.9,118z M86.2,118c0,0.4,0,0.7,0.1,1c0.1,0.3,0.2,0.6,0.3,0.8
				c0.1,0.2,0.3,0.4,0.5,0.5s0.5,0.2,0.8,0.2c0.6,0,1-0.2,1.3-0.6c0.3-0.4,0.4-1,0.4-1.9c0-0.7-0.1-1.3-0.4-1.8
				c-0.3-0.5-0.7-0.7-1.4-0.7c-0.6,0-1,0.2-1.3,0.6C86.4,116.5,86.2,117.1,86.2,118z"/>
			<path class="st4" d="M98.9,122v-4.6c0-0.7-0.1-1.1-0.3-1.4c-0.2-0.3-0.5-0.4-1-0.4c-0.4,0-0.8,0.1-1.1,0.3
				c-0.3,0.2-0.5,0.5-0.6,0.9v5.2h-2.3v-8h1.8l0.3,1.1h0.1c0.3-0.3,0.6-0.6,1.1-0.9c0.4-0.3,1-0.4,1.7-0.4c0.4,0,0.8,0.1,1.1,0.2
				c0.3,0.1,0.6,0.3,0.9,0.5c0.2,0.2,0.4,0.6,0.5,1c0.1,0.4,0.2,0.9,0.2,1.6v5H98.9z"/>
			<path class="st4" d="M108.4,122v-4.6c0-0.7-0.1-1.1-0.3-1.4c-0.2-0.3-0.5-0.4-1-0.4c-0.4,0-0.8,0.1-1.1,0.3
				c-0.3,0.2-0.5,0.5-0.6,0.9v5.2h-2.3v-8h1.8l0.3,1.1h0.1c0.3-0.3,0.6-0.6,1.1-0.9c0.4-0.3,1-0.4,1.7-0.4c0.4,0,0.8,0.1,1.1,0.2
				c0.3,0.1,0.6,0.3,0.9,0.5c0.2,0.2,0.4,0.6,0.5,1c0.1,0.4,0.2,0.9,0.2,1.6v5H108.4z"/>
			<path class="st4" d="M119.5,121.3c-0.3,0.3-0.8,0.5-1.4,0.6s-1.2,0.3-1.9,0.3c-1.4,0-2.4-0.4-3.1-1.1s-1-1.8-1-3.1
				c0-1.4,0.4-2.5,1.1-3.2s1.8-1.1,3.1-1.1c0.4,0,0.9,0.1,1.3,0.2c0.4,0.1,0.8,0.3,1.1,0.5c0.3,0.2,0.6,0.6,0.8,1
				c0.2,0.4,0.3,0.9,0.3,1.6c0,0.2,0,0.5,0,0.7c0,0.3-0.1,0.5-0.1,0.8h-5.2c0,0.7,0.2,1.2,0.6,1.5c0.3,0.3,0.9,0.5,1.7,0.5
				c0.5,0,0.9-0.1,1.3-0.2s0.7-0.3,0.9-0.4L119.5,121.3z M116.2,115.4c-0.6,0-1,0.2-1.3,0.5c-0.3,0.3-0.5,0.8-0.5,1.3h3.2
				c0-0.6,0-1-0.3-1.3C117.1,115.5,116.8,115.4,116.2,115.4z"/>
			<path class="st4" d="M127.4,121.5c-0.3,0.2-0.8,0.4-1.3,0.5s-1,0.2-1.5,0.2c-0.7,0-1.3-0.1-1.8-0.3s-0.9-0.5-1.2-0.9
				c-0.3-0.4-0.5-0.8-0.7-1.3c-0.1-0.5-0.2-1.1-0.2-1.7c0-1.4,0.3-2.4,1-3.1s1.6-1.1,2.9-1.1c0.6,0,1.1,0,1.5,0.1
				c0.4,0.1,0.7,0.2,1,0.4l-0.5,1.7c-0.3-0.1-0.5-0.2-0.8-0.3c-0.3-0.1-0.6-0.1-0.9-0.1c-0.6,0-1.1,0.2-1.4,0.6
				c-0.3,0.4-0.5,1-0.5,1.8c0,0.3,0,0.7,0.1,0.9c0.1,0.3,0.2,0.5,0.4,0.8c0.2,0.2,0.4,0.4,0.6,0.5s0.6,0.2,0.9,0.2
				c0.4,0,0.7,0,1-0.1c0.3-0.1,0.5-0.2,0.7-0.3L127.4,121.5z"/>
			<path class="st4" d="M127.9,113.9h1.2v-1.5l2.3-0.6v2.1h2.1v1.8h-2.1v3.1c0,0.6,0.1,1,0.2,1.2c0.1,0.2,0.3,0.4,0.7,0.4
				c0.2,0,0.4,0,0.6-0.1c0.2,0,0.4-0.1,0.6-0.2l0.4,1.6c-0.3,0.1-0.7,0.3-1.1,0.4c-0.4,0.1-0.8,0.1-1.3,0.1c-0.8,0-1.4-0.2-1.8-0.6
				c-0.4-0.4-0.6-1-0.6-1.9v-4h-1.2V113.9z"/>
		</g>
	</g>
</g>
</svg>
