<?xml version="1.0" encoding="utf-8"?>
<!-- Generator: Adobe Illustrator 25.2.3, SVG Export Plug-In . SVG Version: 6.00 Build 0)  -->
<svg version="1.1" id="Layer_1" xmlns="http://www.w3.org/2000/svg" xmlns:xlink="http://www.w3.org/1999/xlink" x="0px" y="0px"
	 viewBox="0 0 723 400" style="enable-background:new 0 0 723 400;" xml:space="preserve">
<style type="text/css">
	.st0{fill:url(#SVGID_1_);}
	.st1{fill:#69A833;}
	.st2{fill:#FFFFFF;}
	.st3{fill:#0445A1;}
</style>
<radialGradient id="SVGID_1_" cx="607.52" cy="316.7" r="241.04" gradientTransform="matrix(1 0 0 -1 0 400)" gradientUnits="userSpaceOnUse">
	<stop  offset="0" style="stop-color:#1B55D0"/>
	<stop  offset="0.29" style="stop-color:#164FBA"/>
	<stop  offset="0.56" style="stop-color:#0445A1"/>
	<stop  offset="1" style="stop-color:#062872"/>
</radialGradient>
<circle class="st0" cx="521.8" cy="200" r="195.7"/>
<path class="st1" d="M553.2,296.7l147.1-82.5c7.8-4.5,10.5-14.4,6.1-22.2c-1.4-2.5-3.5-4.6-6.1-6.1l-147.1-82.5
	c-10.6-5.9-23.5,1.9-23.5,14.1v165.1C529.6,294.8,542.6,302.6,553.2,296.7z"/>
<path class="st2" d="M382.3,207.4c0.1-2.1-1-4-2.7-5.1c-2.1-1.4-4.4-2.6-6.8-3.5c-2.7-1-5.6-2.1-8.8-3.1c-3.1-1-6-2.4-8.8-4.2
	c-2.7-1.7-5-4-6.8-6.6c-1.8-2.7-2.7-6.1-2.7-10.4c-0.1-3.3,0.6-6.6,1.9-9.6c1.2-2.7,3.1-5,5.5-6.8c2.5-1.9,5.4-3.3,8.5-4
	c3.6-0.9,7.3-1.4,11-1.4c4.4,0,8.8,0.4,13.2,1.2c3.6,0.6,7,1.8,10.2,3.4l-4.9,13c-1-0.6-2.1-1.1-3.2-1.5c-1.5-0.6-2.9-1-4.5-1.4
	c-1.7-0.4-3.5-0.7-5.4-1c-1.9-0.2-3.8-0.4-5.8-0.4c-3.5,0-6.2,0.6-8.1,1.8c-1.8,1-2.9,3-2.9,5.1c0,2.1,1,4.1,2.7,5.2
	c2.1,1.5,4.4,2.7,6.8,3.6c2.7,1.1,5.6,2.2,8.8,3.3c3.1,1.1,6,2.5,8.8,4.2c2.7,1.7,5,3.9,6.8,6.5c1.9,3,2.9,6.5,2.7,10
	c0.1,3.6-0.6,7.2-2.1,10.5c-1.4,2.9-3.4,5.4-5.9,7.3c-2.8,2-5.9,3.5-9.2,4.2c-3.9,0.9-7.8,1.4-11.8,1.4c-2.7,0-5.4-0.1-8.1-0.5
	c-2.6-0.3-4.9-0.7-7.1-1.2c-1.9-0.4-3.8-0.9-5.7-1.5c-1.3-0.4-2.7-0.9-3.9-1.5l5.1-13.1c1,0.5,2.1,1,3.2,1.4c1.4,0.5,2.9,1,4.6,1.4
	c1.8,0.5,3.6,0.8,5.4,1.1c1.9,0.3,3.9,0.4,5.8,0.4c4.6,0,8.1-0.7,10.6-2C381,212.4,382.4,210,382.3,207.4z"/>
<path class="st2" d="M408.6,172.4h6.5l1.9,7h1c1.9-2.7,4.4-4.9,7.4-6.4c3.2-1.5,6.7-2.3,10.2-2.3c8,0,14,2.2,17.9,6.7
	c3.9,4.4,5.9,11.5,5.9,21.3c0.1,4.3-0.6,8.5-1.9,12.6c-1.2,3.5-3.1,6.8-5.6,9.6c-2.5,2.6-5.5,4.7-8.8,6c-3.7,1.4-7.6,2.2-11.6,2.1
	c-1.4,0-2.7,0-3.8-0.2c-1.1-0.1-2.1-0.3-3.2-0.5c-1-0.2-2-0.5-2.9-0.8c-1-0.3-2-0.7-3-1.1v22.2h-9.7L408.6,172.4z M433.2,179.1
	c-4.2,0-7.4,1.1-9.8,3.2c-2.4,2.1-4.1,5.3-5.1,9.7v25.4c1.6,1.1,3.4,2,5.2,2.6c2.3,0.7,4.8,1,7.2,0.9c5.6,0,10-1.9,13.2-5.6
	c3.2-3.7,4.8-9.2,4.8-16.6c0-6-1.2-10.7-3.5-14.3C442.8,180.8,438.8,179.1,433.2,179.1z"/>
<path class="st2" d="M469.8,200.1c-0.1-4.1,0.5-8.3,1.8-12.2c1.1-3.4,2.9-6.5,5.2-9.2c2.3-2.5,5.2-4.5,8.5-5.8
	c3.6-1.4,7.5-2.1,11.4-2c4-0.1,8,0.7,11.8,2.2c3.2,1.4,6.1,3.5,8.4,6.1c2.3,2.7,4,5.9,5,9.2c1.1,3.8,1.7,7.7,1.6,11.6
	c0.1,4.1-0.6,8.2-1.8,12.1c-1.1,3.4-2.9,6.5-5.2,9.2c-2.3,2.5-5.2,4.5-8.4,5.8c-3.6,1.4-7.4,2.1-11.3,2c-4.1,0.1-8.2-0.7-12-2.2
	c-3.2-1.4-6.1-3.4-8.4-6.1c-2.3-2.7-3.9-5.8-4.9-9.2C470.3,207.9,469.7,204,469.8,200.1z M480.3,200.1c0,2.6,0.3,5.1,0.9,7.6
	c0.5,2.4,1.5,4.6,2.9,6.7c2.8,4.3,7.7,6.8,12.8,6.5c10.8,0,16.2-6.9,16.2-20.8c0-2.7-0.3-5.3-0.9-7.9c-0.5-2.4-1.5-4.6-2.8-6.7
	c-2.7-4.2-7.5-6.7-12.5-6.5c-5.4,0-9.5,1.7-12.3,5.2C481.7,187.7,480.3,193,480.3,200.1z"/>
<path class="st2" d="M565.7,181.6c-1.2-0.3-2.3-0.6-3.5-0.8c-1-0.2-2.1-0.4-3.2-0.4c-3.7,0-6.6,0.9-8.7,2.8
	c-2.1,1.9-3.4,4.4-3.8,7.1v37.2h-9.7v-55.2h6.7l1.9,7.4h1c1.4-2.5,3.3-4.7,5.6-6.4c2.4-1.6,5.2-2.4,8-2.3c1.2,0,2.3,0.1,3.5,0.3
	c1.4,0.2,2.7,0.5,4,0.9L565.7,181.6z"/>
<path class="st2" d="M579.6,172.4h9.4v-11.1l9.7-2.5v13.7h16.6v8.2h-16.6v28.2c0,4.4,0.6,7.5,1.7,9.3c1.1,1.8,3,2.7,5.8,2.7
	c1.6,0,3.2-0.2,4.8-0.6c1.4-0.4,3.1-0.9,4.9-1.5l2.2,6.8c-2.3,1-4.7,1.8-7.2,2.5c-2.7,0.7-5.5,1-8.2,1c-4.9,0-8.4-1.3-10.5-4
	c-2.1-2.7-3.1-7-3.1-13v-31.4h-9.4L579.6,172.4z"/>
<path class="st2" d="M654.6,212.2c0-1.2-0.3-2.5-1-3.5c-0.7-1-1.6-1.8-2.7-2.4c-1.2-0.7-2.5-1.3-3.9-1.7c-1.5-0.5-3-1-4.6-1.5
	c-2-0.6-4.1-1.2-6.2-1.8c-2-0.6-3.9-1.5-5.6-2.7c-3.7-2.6-5.9-6.9-5.6-11.4c0-5.5,1.6-9.5,4.9-12.2s7.8-4,13.7-4
	c3.8-0.1,7.5,0.3,11.1,1.3c2.7,0.7,5.3,1.6,7.9,2.7l-2.3,8.2c-2.2-1-4.5-1.9-6.8-2.7c-2.8-0.9-5.7-1.4-8.7-1.3c-3.4,0-6,0.6-7.7,1.7
	s-2.5,3.1-2.5,6.1c0,1.1,0.3,2.1,1,3c0.7,0.9,1.5,1.6,2.5,2.1c1.2,0.6,2.4,1.2,3.7,1.6c1.4,0.5,2.9,0.9,4.4,1.3
	c2.1,0.6,4.2,1.2,6.3,1.9c2.1,0.7,4,1.7,5.8,2.9c1.7,1.2,3.2,2.8,4.3,4.7c1.2,2.2,1.7,4.7,1.6,7.1c0.2,4.8-1.8,9.4-5.3,12.7
	c-3.5,3.3-8.8,4.9-15.8,4.9c-3.9,0.1-7.9-0.4-11.7-1.4c-2.9-0.7-5.7-1.8-8.4-3.2l2.7-8.4c2.4,1.3,5,2.3,7.6,3.2c3,1,6.2,1.6,9.3,1.6
	c2.9,0.1,5.8-0.5,8.5-1.8C653.5,217.8,654.6,215.5,654.6,212.2z"/>
<path class="st3" d="M32.2,194.5l1.5,13h0.4l1.7-13.2l14-40.2h10.1l13.8,40.5l1.7,13h0.5l1.6-13.2l9.8-40.2h16l-22.1,74.1H70.6
	l-14.3-40l-1.9-11.4h-0.7l-1.9,11.5l-14.2,39.9h-11L4.6,154h17L32.2,194.5z"/>
<path class="st3" d="M109.7,175.9c6.3-3,14.1-4.5,23.4-4.5c3.5-0.1,6.9,0.4,10.1,1.6c2.3,0.9,4.3,2.3,5.9,4.1
	c1.4,1.6,2.3,3.5,2.8,5.6c0.5,2,0.7,4.1,0.7,6.1c0,3.9-0.1,7.7-0.4,11.6s-0.4,8.1-0.4,12.7c0,2.7,0.1,5.2,0.4,7.7
	c0.2,2.3,0.6,4.6,1.2,6.9h-7l-2.6-8.4h-1c-0.9,1.1-1.8,2.2-2.8,3.2c-1.2,1.1-2.5,2.1-4,2.9c-3.7,2-7.9,3-12.2,2.9
	c-2.4,0-4.8-0.3-7.1-1.1c-2.1-0.7-4-1.7-5.6-3.1c-1.6-1.3-2.9-3-3.7-4.9c-0.9-2-1.4-4.2-1.4-6.5c-0.1-2.9,0.6-5.7,2-8.2
	c1.3-2.3,3.1-4.2,5.3-5.7c2.3-1.5,4.8-2.6,7.4-3.3c2.7-0.7,5.5-1,8.2-1c2.2,0,4,0,5.5,0.1s2.8,0.1,3.8,0.3s1.9,0.2,2.6,0.3l1.9,0.3
	c0.1-1,0.2-2,0.3-2.7s0.1-1.8,0.1-2.9c0-1.7-0.2-3.3-0.6-4.9c-0.3-1.2-1-2.3-2-3.2c-1.1-0.9-2.4-1.5-3.8-1.7
	c-1.9-0.4-3.9-0.6-5.9-0.5c-1.5,0-2.9,0.1-4.4,0.3c-1.6,0.2-3.2,0.5-4.8,0.9c-1.6,0.4-3.2,0.9-4.8,1.4c-1.5,0.5-2.9,1.1-4.3,1.8
	L109.7,175.9z M142.5,202.6c-0.6-0.1-1.1-0.2-1.8-0.3c-0.8-0.2-1.6-0.3-2.4-0.3c-0.9-0.1-2-0.1-3.3-0.2c-1.3-0.1-2.9-0.1-4.8-0.1
	c-4.3,0-7.7,0.8-10.3,2.3s-3.8,4.2-3.8,7.9c-0.2,2.5,1,4.9,3,6.3c2.3,1.5,5,2.2,7.7,2.1c2.1,0,4.1-0.3,6.1-0.9
	c1.6-0.5,3.2-1.3,4.6-2.2c1.2-0.8,2.3-1.8,3.1-2.9c0.7-1,1.3-2.1,1.8-3.2L142.5,202.6z"/>
<path class="st3" d="M162.6,172.4h9.4v-11.1l9.7-2.5v13.7h16.6v8.2h-16.6v28.2c0,4.4,0.6,7.5,1.7,9.3c1.1,1.8,3,2.7,5.8,2.7
	c1.6,0,3.2-0.2,4.8-0.6c1.4-0.4,3.1-0.9,4.9-1.5l2.2,6.8c-2.3,1-4.7,1.8-7.2,2.5c-2.7,0.7-5.5,1-8.2,1c-4.9,0-8.4-1.3-10.5-4
	c-2.1-2.7-3.1-7-3.1-13v-31.4h-9.4L162.6,172.4z"/>
<path class="st3" d="M250.2,223.8c-2.6,1.8-5.5,3.2-8.6,3.9c-3.4,0.9-6.9,1.3-10.4,1.3c-4,0.1-8.1-0.6-11.8-2.1
	c-3.1-1.3-5.8-3.3-7.9-5.9c-2.1-2.7-3.6-5.8-4.4-9.1c-0.9-3.9-1.4-7.9-1.4-11.9c0-9.3,2.3-16.5,6.8-21.6c4.5-5.1,11-7.6,19.5-7.6
	c3.3-0.1,6.5,0.3,9.7,1c2.5,0.6,5,1.4,7.4,2.5l-2.5,7.9c-1.9-1-4-1.8-6.1-2.3c-2.3-0.6-4.7-0.9-7.1-0.8c-11.3,0-17,7-17,21
	c0,2.6,0.3,5.2,0.9,7.7c0.6,2.4,1.6,4.6,3,6.6c1.4,2,3.3,3.6,5.5,4.7c2.6,1.3,5.4,1.9,8.3,1.8c2.6,0,5.2-0.4,7.7-1.2
	c2-0.7,3.8-1.7,5.5-2.9L250.2,223.8z"/>
<path class="st3" d="M301.3,227.6v-30.5c0-2.6-0.2-5.2-0.6-7.8c-0.3-2-1-3.9-2.1-5.5c-1-1.5-2.4-2.6-4.1-3.2
	c-2.1-0.8-4.3-1.1-6.5-1.1c-1.8,0-3.6,0.3-5.4,1c-1.7,0.6-3.4,1.5-4.8,2.6c-3.1,2.3-5.2,5.6-6.1,9.4v35.2h-9.7v-73.6h9.7v25.2h1.2
	c2.1-2.5,4.7-4.6,7.6-6.1c3.4-1.6,7.2-2.4,10.9-2.3c2.9-0.1,5.9,0.3,8.7,1.1c2.4,0.7,4.5,2,6.1,3.9c1.8,2.2,3,4.7,3.6,7.5
	c0.8,3.8,1.2,7.8,1.1,11.7v32.6L301.3,227.6z"/>
</svg>
