<svg width="126" height="38" viewBox="0 0 126 38" fill="none" xmlns="http://www.w3.org/2000/svg">
<path d="M2.99477 27.4612C3.28099 28.0345 3.74967 28.4959 4.3267 28.7723C4.89362 29.0453 5.51404 29.1884 6.14296 29.1911C6.52432 29.1864 6.90322 29.1292 7.26905 29.0212C7.65675 28.9068 8.02438 28.7327 8.35882 28.5052C8.69981 28.2797 8.99894 27.9962 9.24274 27.6675C9.49517 27.3255 9.65569 26.9242 9.70891 26.5021C9.76989 26.2518 9.76632 25.9901 9.69853 25.7416C9.63074 25.4931 9.50097 25.266 9.32144 25.0817C8.92742 24.725 8.46922 24.4469 7.97134 24.2622C7.42243 24.0437 6.81701 23.8312 6.15508 23.6249C5.51076 23.4312 4.89867 23.1428 4.33881 22.769C3.7973 22.4017 3.36274 21.8969 3.07953 21.3061C2.75668 20.516 2.67658 19.6473 2.84947 18.8113C2.92834 18.2823 3.10272 17.7722 3.36408 17.3059C3.66406 16.7511 4.06439 16.257 4.54465 15.8491C5.09591 15.3822 5.71967 15.0091 6.39119 14.7443C7.20291 14.4356 8.06596 14.2852 8.93397 14.3012C9.36319 14.3015 9.79194 14.3299 10.2175 14.3862C10.6204 14.4332 11.0166 14.5269 11.398 14.6654C12.1683 14.949 12.8308 15.4668 13.293 16.1465L11.2951 17.7611C11.0727 17.3236 10.7191 16.967 10.2841 16.7414C9.78034 16.4706 9.2147 16.3366 8.64336 16.3529C8.11886 16.3399 7.5962 16.4201 7.09953 16.5896C6.71505 16.7233 6.35956 16.9293 6.05216 17.1966C5.80257 17.4261 5.59733 17.6998 5.44673 18.0039C5.3147 18.2519 5.22662 18.521 5.1864 18.7991C5.12402 19.0725 5.12543 19.3566 5.19054 19.6293C5.25565 19.902 5.3827 20.1559 5.56176 20.3713C5.93973 20.7589 6.39589 21.061 6.89974 21.2575C7.49282 21.4953 8.09928 21.6979 8.71601 21.8645C9.35356 22.0347 9.96471 22.2921 10.5323 22.6294C11.0689 22.9467 11.5119 23.4013 11.8158 23.9466C12.1472 24.6611 12.2385 25.464 12.0761 26.235C11.8551 27.683 11.0824 28.9886 9.92081 29.877C9.34532 30.3094 8.70033 30.6399 8.01373 30.8543C7.29348 31.0842 6.54161 31.1989 5.78577 31.1943C4.80736 31.2076 3.83605 31.026 2.92817 30.6601C2.10174 30.3374 1.41125 29.7394 0.972656 28.9665L2.99477 27.4612Z" fill="#1B55D0"/>
<path d="M14.1891 20.0374H16.2354L16.0295 21.5853H16.0719C16.5659 21.0035 17.1876 20.5444 17.8882 20.2438C18.5739 19.9349 19.316 19.7717 20.0677 19.7643C20.8252 19.7486 21.577 19.8977 22.2714 20.2013C22.883 20.4696 23.4178 20.8869 23.8274 21.4154C24.2358 21.9543 24.5229 22.5756 24.6689 23.2364C24.8268 23.9664 24.8535 24.7187 24.7476 25.458C24.6322 26.2405 24.3909 26.999 24.0332 27.704C23.6909 28.3843 23.2342 29.0003 22.6831 29.525C21.5434 30.5889 20.0386 31.1715 18.4815 31.1518C17.7479 31.1612 17.023 30.9925 16.3686 30.6601C15.7766 30.3769 15.2908 29.911 14.9822 29.3308H14.9398L13.8258 37.2462H11.7855L14.1891 20.0374ZM19.547 21.6764C19.0308 21.6719 18.5186 21.7688 18.0395 21.9617C17.5939 22.1481 17.1842 22.4111 16.8287 22.7386C16.4658 23.0741 16.1699 23.4758 15.9569 23.9223C15.7227 24.3973 15.5692 24.9081 15.5028 25.4338C15.4142 25.9357 15.4142 26.4494 15.5028 26.9513C15.5897 27.382 15.7741 27.7869 16.0416 28.1349C16.3107 28.4684 16.6552 28.7327 17.0466 28.9059C17.5033 29.1028 17.9966 29.2 18.4936 29.1912C19.0099 29.1957 19.522 29.0987 20.0011 28.9059C20.447 28.7227 20.857 28.4617 21.212 28.1349C21.5675 27.7929 21.8624 27.3927 22.0838 26.9513C22.3211 26.4745 22.4786 25.9618 22.5499 25.4338C22.6238 24.9316 22.6115 24.4204 22.5136 23.9223C22.4299 23.4894 22.243 23.0833 21.9687 22.7386C21.6952 22.4058 21.3494 22.14 20.9577 21.9617C20.5059 21.7626 20.0162 21.6653 19.5228 21.6764H19.547Z" fill="#1B55D0"/>
<path d="M25.7647 25.4338C25.87 24.6556 26.125 23.9052 26.5155 23.2243C26.9045 22.5399 27.4037 21.9246 27.9927 21.4033C28.5829 20.891 29.254 20.4808 29.9785 20.1893C30.7122 19.8957 31.4951 19.7453 32.2851 19.7462C33.0347 19.738 33.7775 19.889 34.4646 20.1893C35.094 20.4709 35.6556 20.8849 36.1114 21.4033C36.5619 21.932 36.8906 22.5537 37.074 23.2243C37.2704 23.9436 37.3177 24.6955 37.2133 25.4338C37.0995 26.2122 36.8495 26.9644 36.4747 27.6555C36.0987 28.3454 35.6025 28.9621 35.0095 29.4765C34.4182 29.9872 33.7474 30.3973 33.0237 30.6905C32.29 30.9841 31.5071 31.1345 30.7171 31.1336C29.9637 31.1412 29.2171 30.9903 28.5255 30.6905C27.8959 30.4122 27.3356 29.9976 26.8848 29.4765C26.4332 28.9476 26.1026 28.3261 25.9161 27.6555C25.7004 26.9356 25.6487 26.1764 25.7647 25.4338ZM27.9503 25.4338C27.8805 25.9307 27.8969 26.4359 27.9987 26.9271C28.0836 27.3573 28.2659 27.7623 28.5315 28.1108C28.8028 28.4445 29.1493 28.7087 29.5426 28.8816C29.9971 29.0786 30.4884 29.1759 30.9835 29.1669C31.9931 29.1783 32.9685 28.8002 33.7079 28.1108C34.0671 27.7705 34.3642 27.3699 34.5857 26.9271C34.8204 26.4492 34.9777 25.937 35.0519 25.4096C35.1258 24.9073 35.1135 24.3962 35.0156 23.8981C34.9319 23.4652 34.745 23.0591 34.4707 22.7144C34.1972 22.3815 33.8513 22.1158 33.4597 21.9375C33.0096 21.7399 32.5221 21.6425 32.0309 21.6522C31.5127 21.6483 30.9987 21.7452 30.5173 21.9375C30.0722 22.1248 29.6626 22.3876 29.3065 22.7144C28.9435 23.0499 28.6476 23.4516 28.4346 23.8981C28.1873 24.3787 28.0235 24.8981 27.9503 25.4338Z" fill="#1B55D0"/>
<path d="M39.0476 20.0373H41.094L40.8639 21.7005H40.9123C41.2099 21.1515 41.6657 20.7051 42.2201 20.4197C42.7884 20.1086 43.4323 19.9635 44.0787 20.0009C44.4117 20.0009 44.787 20.0009 45.1927 20.0373L44.9021 21.8098C44.6902 21.8098 44.5388 21.8098 44.3451 21.8098C44.1514 21.8098 43.8486 21.8401 43.6428 21.8705C42.3714 22.0586 42.105 22.2407 41.4996 22.7992C40.8241 23.511 40.4154 24.4355 40.3432 25.4154L39.5925 30.836H37.5522L39.0476 20.0373Z" fill="#1B55D0"/>
<path d="M52.4215 21.8159H49.4791L48.8132 26.7084C48.7647 27.0119 48.7345 27.3154 48.7103 27.6068C48.6837 27.873 48.7021 28.1418 48.7647 28.4019C48.8211 28.6296 48.9536 28.831 49.1401 28.9725C49.3995 29.1379 49.7054 29.2146 50.0119 29.1911C50.2675 29.1889 50.5226 29.1666 50.7747 29.1243C51.0326 29.078 51.2817 28.992 51.5134 28.8694L51.2409 30.7389C51.0903 30.816 50.932 30.877 50.7687 30.921C50.5971 30.9647 50.4233 30.9992 50.248 31.0242L49.7455 31.0789C49.6125 31.0865 49.479 31.0865 49.346 31.0789C48.723 31.1179 48.0999 31.0054 47.5297 30.7511C47.1645 30.5642 46.8693 30.264 46.6881 29.8952C46.5256 29.5273 46.455 29.1251 46.4823 28.7237C46.5065 28.2947 46.5489 27.8577 46.6094 27.4125L47.4025 21.7916H45.4773L45.7376 20.0131H47.6508L48.0806 16.978H50.1269L49.7032 20.0131H52.6455L52.4215 21.8159Z" fill="#1B55D0"/>
<path d="M59.5957 22.7507C59.3921 22.4434 59.1259 22.1827 58.8147 21.9858C58.4306 21.7648 57.9919 21.6575 57.5494 21.6763C57.0965 21.6691 56.6491 21.7755 56.2477 21.9858C56.0714 22.0666 55.9191 22.1918 55.8056 22.3493C55.692 22.5068 55.6211 22.6911 55.5999 22.8842C55.571 23.02 55.5734 23.1605 55.607 23.2952C55.6406 23.4299 55.7044 23.5551 55.7937 23.6612C55.9787 23.863 56.2033 24.0242 56.4536 24.1347C56.7243 24.2591 57.0088 24.3508 57.3011 24.4078L58.0943 24.5717C58.5074 24.6666 58.9123 24.7944 59.3051 24.9541C59.6476 25.0958 59.96 25.3018 60.2254 25.5611C60.478 25.8041 60.6618 26.1099 60.7581 26.4474C60.8713 26.8624 60.8961 27.2968 60.8308 27.7221C60.7591 28.2839 60.5513 28.8195 60.2254 29.2821C59.9206 29.7095 59.531 30.069 59.0811 30.3383C58.6205 30.6196 58.1175 30.8246 57.5918 30.9453C57.0674 31.0651 56.5313 31.1262 55.9934 31.1274C55.2125 31.1477 54.4357 31.0072 53.711 30.7146C53.0327 30.398 52.4729 29.8728 52.1127 29.2153L53.8139 27.9406C54.1059 28.2794 54.4419 28.5775 54.8129 28.8268C55.2507 29.1023 55.7616 29.2378 56.278 29.2153C56.8048 29.2176 57.3257 29.1036 57.8037 28.8815C58.0229 28.7993 58.2167 28.6607 58.3655 28.4795C58.5143 28.2983 58.6129 28.0811 58.6512 27.8495C58.6776 27.7188 58.6756 27.5839 58.6453 27.454C58.615 27.3241 58.5571 27.2023 58.4757 27.0969C58.312 26.8969 58.1049 26.737 57.8702 26.6295C57.6048 26.5131 57.3292 26.4217 57.0469 26.3563L56.284 26.1863C55.874 26.0876 55.4697 25.966 55.0732 25.8221C54.7168 25.6992 54.3848 25.5143 54.0924 25.2758C53.8168 25.0485 53.6076 24.7507 53.487 24.4139C53.3505 23.9948 53.3214 23.5482 53.4022 23.1149C53.4684 22.5877 53.6594 22.084 53.9592 21.6459C54.2482 21.2334 54.6142 20.8809 55.0369 20.6079C55.4732 20.3341 55.949 20.1294 56.4475 20.0009C56.9433 19.8678 57.4539 19.7985 57.9671 19.7945C58.6663 19.7899 59.3589 19.9305 60.0013 20.2073C60.6198 20.4715 61.1168 20.9589 61.3938 21.5731L59.5957 22.7507Z" fill="#1B55D0"/>
<path d="M64.1365 14.7139H69.7245C70.3647 14.708 71.0025 14.7917 71.6195 14.9628C72.1443 15.1061 72.6331 15.3584 73.0544 15.7033C73.4395 16.0377 73.728 16.4695 73.8898 16.9538C74.0658 17.5336 74.1072 18.1461 74.0109 18.7445C73.9248 19.5992 73.5487 20.3985 72.9454 21.0086C72.3378 21.6044 71.5967 22.0457 70.784 22.2955V22.338C71.2322 22.365 71.6689 22.4905 72.0633 22.7055C72.4578 22.9206 72.8002 23.2199 73.0665 23.5823C73.3388 23.9426 73.5327 24.3562 73.6356 24.7963C73.751 25.2959 73.7715 25.8128 73.6961 26.3199C73.6048 27.0079 73.3584 27.6659 72.9757 28.2442C72.6048 28.7982 72.1298 29.2745 71.5771 29.6463C70.9904 30.036 70.3442 30.3271 69.664 30.5083C68.9305 30.711 68.1726 30.8111 67.4118 30.8057H61.9025L64.1365 14.7139ZM64.3181 28.9179H67.5208C67.8943 28.9132 68.2668 28.8786 68.6348 28.8147C69.0588 28.7468 69.4682 28.6072 69.8456 28.402C70.2353 28.1988 70.5793 27.9179 70.8567 27.5764C71.1677 27.1752 71.3568 26.6926 71.4016 26.1864C71.4988 25.8065 71.494 25.4076 71.3877 25.0302C71.2813 24.6528 71.0772 24.3103 70.7961 24.0376C70.1034 23.5095 69.2424 23.2527 68.3744 23.3152H65.1536L64.3181 28.9179ZM65.3958 21.4032H68.3684C68.7632 21.4064 69.1571 21.3657 69.5429 21.2818C69.9037 21.2056 70.2468 21.0614 70.554 20.8568C70.8483 20.6589 71.1012 20.4053 71.2986 20.1102C71.5158 19.7737 71.6525 19.3915 71.6982 18.9933C71.7832 18.408 71.6401 17.8124 71.2986 17.3301C71.0744 17.0753 70.7923 16.8783 70.4762 16.7558C70.1601 16.6332 69.8192 16.5887 69.4824 16.626H66.0678L65.3958 21.4032Z" fill="#1B55D0"/>
<path d="M83.728 30.83H81.6877L81.9117 29.1668H81.8814C81.5046 29.7671 80.9706 30.2521 80.3376 30.569C79.6355 30.9298 78.8561 31.1131 78.0673 31.1031C77.569 31.109 77.0734 31.0289 76.6021 30.8664C76.1689 30.7147 75.7785 30.4607 75.4639 30.1258C75.1378 29.7597 74.9088 29.3172 74.798 28.839C74.6547 28.2303 74.63 27.5996 74.7253 26.9815L75.7061 20.0374H77.7464L76.8625 26.411C76.7794 26.8359 76.7794 27.2729 76.8625 27.6978C76.9252 28.0183 77.0691 28.3172 77.2802 28.5658C77.4801 28.7823 77.7294 28.9469 78.0067 29.0454C78.2996 29.1429 78.6063 29.1921 78.9149 29.1911C79.7441 29.1984 80.5459 28.8929 81.161 28.3352C81.8944 27.6016 82.3394 26.6274 82.4142 25.5915L83.1831 20.0374H85.2294L83.728 30.83Z" fill="#1B55D0"/>
<path d="M87.748 13.6213H89.7882L88.6803 21.5853H88.7227C89.1899 21.0066 89.7903 20.5504 90.4724 20.256C91.1777 19.9338 91.9434 19.7661 92.7185 19.7643C93.4721 19.7481 94.2201 19.8972 94.9101 20.2013C95.5167 20.4777 96.0498 20.8937 96.4661 21.4154C96.8836 21.9503 97.1754 22.5727 97.3197 23.2364C97.4778 23.9725 97.5045 24.7308 97.3984 25.4762C97.2859 26.2547 97.0466 27.0094 96.6901 27.71C96.3531 28.3904 95.9003 29.0067 95.3521 29.5311C94.8026 30.0521 94.1596 30.464 93.4571 30.7451C92.7164 31.0352 91.9275 31.1814 91.1323 31.1761C90.4182 31.1796 89.7132 31.0154 89.0738 30.6965C88.466 30.4105 87.9624 29.9416 87.6329 29.355H87.5906L87.3847 30.9029H85.3384L87.748 13.6213ZM91.1504 29.1911C92.1601 29.2025 93.1355 28.8244 93.8748 28.1349C94.2341 27.7947 94.5312 27.3941 94.7527 26.9513C94.9873 26.4734 95.1447 25.9612 95.2189 25.4337C95.2927 24.9315 95.2805 24.4203 95.1826 23.9223C95.0989 23.4894 94.9119 23.0833 94.6377 22.7386C94.3642 22.4057 94.0183 22.14 93.6266 21.9617C93.1767 21.7635 92.6891 21.6661 92.1978 21.6764C91.6797 21.6725 91.1657 21.7694 90.6843 21.9617C90.2391 22.149 89.8295 22.4118 89.4734 22.7386C89.1105 23.0741 88.8146 23.4758 88.6016 23.9223C88.3674 24.3972 88.2139 24.9081 88.1476 25.4337C88.0689 25.9375 88.0791 26.4511 88.1778 26.9513C88.2627 27.3815 88.445 27.7865 88.7106 28.1349C88.9831 28.4674 89.3293 28.7314 89.7217 28.9058C90.1725 29.1011 90.6594 29.1983 91.1504 29.1911Z" fill="#1B55D0"/>
<path d="M100.141 13.6213H102.187L101.073 21.5853H101.122C101.585 21.0055 102.184 20.5489 102.865 20.256C103.573 19.9329 104.34 19.7653 105.118 19.7643C105.871 19.7486 106.619 19.8978 107.309 20.2013C107.914 20.4786 108.445 20.8944 108.859 21.4154C109.281 21.9473 109.574 22.5709 109.713 23.2364C109.874 23.9721 109.9 24.731 109.791 25.4762C109.678 26.2537 109.441 27.0079 109.089 27.71C108.75 28.3889 108.297 29.0048 107.751 29.5311C107.199 30.0523 106.554 30.4642 105.85 30.7451C105.11 31.0362 104.321 31.1825 103.525 31.1761C102.813 31.1805 102.11 31.0162 101.473 30.6965C100.863 30.414 100.358 29.9442 100.032 29.355H99.9835L99.7777 30.9029H97.7374L100.141 13.6213ZM103.549 29.1911C104.066 29.1956 104.578 29.0987 105.057 28.9058C105.503 28.7227 105.913 28.4617 106.268 28.1349C106.623 27.7929 106.918 27.3926 107.14 26.9513C107.38 26.4756 107.537 25.9624 107.606 25.4338C107.686 24.9319 107.673 24.4197 107.569 23.9223C107.486 23.4894 107.299 23.0833 107.025 22.7386C106.753 22.4059 106.41 22.14 106.02 21.9617C105.567 21.7641 105.078 21.6668 104.585 21.6764C104.068 21.6719 103.556 21.7688 103.077 21.9617C102.631 22.1476 102.222 22.4105 101.866 22.7386C101.503 23.0755 101.206 23.4768 100.989 23.9223C100.76 24.3994 100.607 24.9093 100.534 25.4338C100.458 25.9378 100.47 26.4515 100.571 26.9513C100.653 27.3824 100.835 27.788 101.104 28.1349C101.373 28.4701 101.72 28.7346 102.115 28.9058C102.567 29.1025 103.056 29.1997 103.549 29.1911Z" fill="#1B55D0"/>
<path d="M113.151 13.6213H115.18L112.758 30.8301H110.718L113.151 13.6213Z" fill="#1B55D0"/>
<path d="M117.172 26.1864C117.106 26.6198 117.152 27.0627 117.305 27.4733C117.449 27.8509 117.679 28.1896 117.977 28.4627C118.288 28.7446 118.652 28.9613 119.048 29.1001C119.478 29.2526 119.931 29.3287 120.386 29.3247C120.989 29.3345 121.583 29.1814 122.106 28.8816C122.647 28.5629 123.14 28.1684 123.571 27.71L124.933 28.8937C124.302 29.6107 123.522 30.1802 122.647 30.562C121.773 30.9437 120.825 31.1285 119.872 31.1032C119.105 31.1188 118.344 30.9719 117.638 30.6723C117.021 30.4007 116.479 29.9843 116.058 29.4582C115.639 28.9234 115.345 28.3011 115.198 27.6372C115.027 26.9006 115.002 26.1374 115.125 25.3913C115.229 24.6064 115.475 23.8472 115.852 23.1514C116.219 22.4675 116.7 21.8516 117.274 21.3304C117.84 20.8151 118.492 20.4041 119.2 20.1164C119.925 19.8243 120.7 19.6759 121.482 19.6793C122.295 19.6484 123.102 19.8216 123.831 20.1831C124.415 20.4894 124.913 20.9382 125.278 21.4882C125.627 22.0395 125.851 22.6613 125.932 23.3092C126.023 23.9942 126.023 24.6881 125.932 25.3731L125.823 26.1015L117.172 26.1864ZM123.892 24.5475C123.938 24.1306 123.921 23.7091 123.843 23.2971C123.779 22.9353 123.629 22.5941 123.407 22.3016C123.18 22.0114 122.882 21.7855 122.542 21.646C122.121 21.4751 121.67 21.3925 121.216 21.4032C120.729 21.4011 120.247 21.4981 119.799 21.6885C119.37 21.8728 118.972 22.1226 118.618 22.4291C118.289 22.7214 118.007 23.0634 117.783 23.4428C117.584 23.7823 117.452 24.1575 117.396 24.5475H123.892Z" fill="#1B55D0"/>
<path d="M34.834 0.564666H37.7703C38.2223 0.549544 38.6728 0.623788 39.0962 0.78318C39.4067 0.905948 39.686 1.09676 39.9135 1.34164C40.1107 1.55882 40.2556 1.81837 40.3373 2.1004C40.4098 2.36348 40.4485 2.63479 40.4523 2.90771C40.4485 3.18263 40.4098 3.45595 40.3373 3.7211C40.2556 4.00313 40.1107 4.26268 39.9135 4.47986C39.6855 4.7227 39.4062 4.91143 39.0962 5.03225C38.6728 5.19164 38.2223 5.2659 37.7703 5.25078H35.954V8.94746H34.8219L34.834 0.564666ZM35.9661 4.26135H37.4555C37.6746 4.26125 37.8933 4.24298 38.1093 4.20672C38.321 4.17816 38.5259 4.1124 38.7148 4.01247C38.8872 3.91536 39.0296 3.77257 39.1265 3.59971C39.237 3.38651 39.2892 3.14773 39.2778 2.90771C39.2878 2.66781 39.2357 2.42942 39.1265 2.21573C39.0278 2.04585 38.8856 1.90545 38.7148 1.80903C38.5274 1.70561 38.3218 1.63964 38.1093 1.61478C37.8933 1.57852 37.6746 1.56025 37.4555 1.56015H35.9661V4.26135Z" fill="#1B55D0"/>
<path d="M40.0527 6.143C40.0469 5.74852 40.1254 5.35735 40.2827 4.99574C40.5839 4.28667 41.1484 3.72288 41.8568 3.42359C42.6056 3.11596 43.445 3.11596 44.1938 3.42359C44.9021 3.72288 45.4666 4.28667 45.7679 4.99574C45.9252 5.35735 46.0037 5.74852 45.9979 6.143C46.0025 6.53934 45.9241 6.93223 45.7679 7.29631C45.6278 7.644 45.4222 7.96139 45.1624 8.23111C44.8887 8.49148 44.5682 8.69746 44.218 8.83812C43.4692 9.14575 42.6298 9.14575 41.881 8.83812C41.5308 8.69746 41.2103 8.49148 40.9366 8.23111C40.6768 7.96139 40.4712 7.644 40.3312 7.29631C40.1582 6.93588 40.0633 6.54283 40.0527 6.143ZM41.1848 6.143C41.1816 6.40943 41.2247 6.67437 41.3119 6.92603C41.3941 7.15073 41.5196 7.357 41.6813 7.53304C41.8517 7.70896 42.0583 7.84566 42.2867 7.93367C42.7794 8.13606 43.3317 8.13606 43.8244 7.93367C44.0536 7.84727 44.2605 7.71036 44.4299 7.53304C44.5916 7.357 44.717 7.15073 44.7992 6.92603C44.8865 6.67437 44.9295 6.40943 44.9263 6.143C44.9288 5.87464 44.8859 5.60779 44.7992 5.35388C44.717 5.12918 44.5916 4.92291 44.4299 4.74687C44.2591 4.56978 44.0527 4.43115 43.8244 4.34018C43.3302 4.14593 42.781 4.14593 42.2867 4.34018C42.0595 4.43335 41.8536 4.57169 41.6813 4.74687C41.5196 4.92291 41.3941 5.12918 41.3119 5.35388C41.2253 5.60779 41.1823 5.87464 41.1848 6.143Z" fill="#1B55D0"/>
<path d="M45.895 3.33862H47.1059L48.3591 7.52698L49.7031 3.33862H50.8353L52.252 7.52698L53.4628 3.33862H54.6373L52.8211 8.94738H51.7434L50.2601 4.75902L48.91 8.94738H47.7355L45.895 3.33862Z" fill="#1B55D0"/>
<path d="M55.7998 6.53156C55.798 6.76357 55.852 6.9926 55.9572 7.19927C56.0623 7.39814 56.2065 7.57365 56.381 7.71523C56.561 7.86232 56.7661 7.97543 56.9864 8.04908C57.2145 8.12661 57.4539 8.16559 57.6947 8.16441C57.9977 8.17453 58.297 8.09425 58.5544 7.93375C58.8117 7.77178 59.039 7.56642 59.2264 7.32674L60.0317 7.93375C59.7416 8.31079 59.365 8.612 58.9339 8.81175C58.5027 9.0115 58.0299 9.10387 57.5555 9.081C57.1408 9.09011 56.7287 9.01366 56.3446 8.85641C55.9999 8.72245 55.688 8.51539 55.4305 8.2494C55.1826 7.97739 54.9893 7.65999 54.8614 7.3146C54.7255 6.9413 54.6578 6.5465 54.6616 6.14914C54.6571 5.75006 54.7311 5.35403 54.8795 4.98369C55.0186 4.63551 55.2243 4.31794 55.4849 4.04889C55.7471 3.78856 56.0577 3.58233 56.3991 3.44188C56.7683 3.2918 57.1632 3.21551 57.5615 3.21729C57.994 3.20304 58.4237 3.29252 58.8148 3.4783C59.1428 3.64111 59.4319 3.87301 59.6624 4.15815C59.8807 4.44023 60.0431 4.76168 60.1406 5.10508C60.2372 5.45501 60.2861 5.81643 60.2859 6.1795V6.55584L55.7998 6.53156ZM59.1538 5.68175C59.1452 5.45901 59.1065 5.23849 59.0388 5.02619C58.9765 4.83595 58.8732 4.66183 58.7361 4.51628C58.5976 4.36618 58.4282 4.24813 58.2396 4.1703C58.0158 4.08373 57.7771 4.04246 57.5373 4.04889C57.3017 4.0463 57.0681 4.09178 56.8505 4.18256C56.633 4.27335 56.4362 4.40754 56.272 4.57699C56.1244 4.73057 56.0055 4.90943 55.9208 5.10508C55.8437 5.28766 55.8026 5.48349 55.7998 5.68175H59.1538Z" fill="#1B55D0"/>
<path d="M61.0306 3.33848H62.0901V4.20042C62.1609 4.04946 62.2572 3.91189 62.3746 3.79373C62.4917 3.67194 62.624 3.56583 62.7682 3.47808C62.9185 3.38977 63.0791 3.32046 63.2465 3.27169C63.415 3.21884 63.5905 3.19222 63.7671 3.19278C63.9275 3.19043 64.0871 3.21505 64.2393 3.26562L64.1909 4.41288L63.9306 4.35217C63.8439 4.34593 63.7569 4.34593 63.6703 4.35217C63.4485 4.33379 63.2253 4.36388 63.0163 4.44038C62.8072 4.51689 62.6172 4.63799 62.4594 4.79529C62.1498 5.17718 62 5.66462 62.0417 6.15499V8.97152H60.9822L61.0306 3.33848Z" fill="#1B55D0"/>
<path d="M65.4563 6.53156C65.4545 6.76357 65.5085 6.9926 65.6137 7.19927C65.7188 7.39814 65.8629 7.57365 66.0375 7.71523C66.2175 7.86232 66.4226 7.97543 66.6429 8.04908C66.871 8.12661 67.1104 8.16559 67.3512 8.16441C67.6543 8.17453 67.9535 8.09425 68.2109 7.93375C68.4689 7.77036 68.698 7.56525 68.889 7.32674L69.6882 7.93375C69.3981 8.31079 69.0215 8.612 68.5904 8.81175C68.1592 9.0115 67.6864 9.10387 67.212 9.081C66.7973 9.09011 66.3851 9.01366 66.0011 8.85641C65.6582 8.72237 65.3483 8.51526 65.093 8.2494C64.8412 7.97925 64.6457 7.66145 64.5179 7.3146C64.382 6.9413 64.3143 6.5465 64.3181 6.14914C64.3136 5.75006 64.3877 5.35403 64.536 4.98369C64.6751 4.63551 64.8808 4.31794 65.1414 4.04889C65.4037 3.78856 65.7142 3.58233 66.0556 3.44188C66.4248 3.2918 66.8197 3.21551 67.218 3.21729C67.6506 3.20304 68.0802 3.29252 68.4713 3.4783C68.7993 3.64111 69.0884 3.87301 69.3189 4.15815C69.5252 4.43302 69.6792 4.74377 69.7729 5.07474C69.8695 5.42466 69.9183 5.78607 69.9182 6.14914V6.5255L65.4563 6.53156ZM68.8103 5.68175C68.8017 5.45901 68.763 5.23849 68.6953 5.02619C68.6329 4.83734 68.5319 4.66365 68.3986 4.51628C68.2567 4.36745 68.0856 4.24966 67.8961 4.1703C67.6723 4.08373 67.4336 4.04246 67.1938 4.04889C66.9582 4.0463 66.7246 4.09178 66.507 4.18256C66.2895 4.27335 66.0927 4.40754 65.9285 4.57699C65.7808 4.72922 65.6636 4.9085 65.5834 5.10508C65.5017 5.28642 65.4584 5.48278 65.4563 5.68175H68.8103Z" fill="#1B55D0"/>
<path d="M76.5294 8.94727H75.4699V8.13994C75.2576 8.44713 74.9641 8.68889 74.6223 8.83801C74.2783 9.00274 73.9017 9.08778 73.5204 9.08687C73.1177 9.09391 72.7178 9.01745 72.3459 8.86228C72.0073 8.7267 71.7017 8.51968 71.4499 8.25527C71.1885 7.98681 70.9827 7.66911 70.8445 7.32049C70.7087 6.94927 70.641 6.55648 70.6447 6.1611C70.6409 5.76373 70.7086 5.36893 70.8445 4.99563C70.9799 4.64555 71.186 4.32729 71.4499 4.06083C71.7032 3.79826 72.0084 3.59153 72.3459 3.45382C72.7186 3.30141 73.1179 3.22506 73.5204 3.22923C73.9122 3.2271 74.2993 3.31429 74.6526 3.48419C74.9837 3.63447 75.2667 3.87404 75.4699 4.17617V0.036377H76.5294V8.94727ZM73.6233 8.09746C73.8872 8.09941 74.1488 8.04779 74.3922 7.94571C74.6211 7.85858 74.8278 7.72177 74.9977 7.54508C75.1589 7.3698 75.2826 7.1632 75.3609 6.93807C75.4503 6.68677 75.4953 6.42181 75.4941 6.15502C75.4947 5.88631 75.4497 5.61947 75.3609 5.36592C75.2832 5.14049 75.1595 4.93377 74.9977 4.75891C74.8265 4.58238 74.6202 4.44382 74.3922 4.3522C74.1484 4.2522 73.8868 4.20266 73.6233 4.20653C73.3618 4.20263 73.1023 4.2522 72.8605 4.3522C72.6326 4.44382 72.4263 4.58238 72.2551 4.75891C72.0933 4.93377 71.9696 5.14049 71.8918 5.36592C71.8002 5.6187 71.755 5.88607 71.7587 6.15502C71.7546 6.42204 71.7997 6.68751 71.8918 6.93807C71.9702 7.1632 72.0939 7.3698 72.2551 7.54508C72.425 7.72177 72.6317 7.85858 72.8605 7.94571C73.101 8.05196 73.3606 8.10773 73.6233 8.10959V8.09746Z" fill="#1B55D0"/>
<path d="M80.828 0H81.8814V4.13979C82.0846 3.83766 82.3676 3.5981 82.6987 3.44781C83.052 3.27791 83.4391 3.19073 83.8309 3.19286C84.2334 3.18868 84.6327 3.26503 85.0054 3.41745C85.3429 3.55515 85.6481 3.76188 85.9014 4.02446C86.1544 4.29369 86.3501 4.61175 86.4765 4.95926C86.6124 5.33256 86.6801 5.72736 86.6763 6.12472C86.68 6.5201 86.6123 6.91289 86.4765 7.28411C86.3473 7.63026 86.152 7.94777 85.9014 8.21889C85.6496 8.4833 85.344 8.69032 85.0054 8.8259C84.6335 8.98108 84.2336 9.05754 83.8309 9.05049C83.4496 9.0514 83.073 8.96636 82.729 8.80163C82.3872 8.65251 82.0937 8.41075 81.8814 8.10356V8.91089H80.8219L80.828 0ZM83.734 8.0975C83.9959 8.09947 84.2555 8.04783 84.4968 7.94575C84.7256 7.85862 84.9324 7.72181 85.1022 7.54512C85.2635 7.36984 85.3871 7.16324 85.4655 6.93811C85.5576 6.68755 85.6028 6.42208 85.5987 6.15506C85.6023 5.88611 85.5572 5.61874 85.4655 5.36596C85.3878 5.14053 85.264 4.93381 85.1022 4.75895C84.931 4.58242 84.7248 4.44387 84.4968 4.35225C84.2551 4.25224 83.9955 4.20268 83.734 4.20657C83.4705 4.2027 83.209 4.25224 82.9651 4.35225C82.7371 4.44387 82.5309 4.58242 82.3597 4.75895C82.1979 4.93381 82.0742 5.14053 81.9964 5.36596C81.9047 5.61874 81.8596 5.88611 81.8632 6.15506C81.8591 6.42208 81.9043 6.68755 81.9964 6.93811C82.0748 7.16324 82.1984 7.36984 82.3597 7.54512C82.5295 7.72181 82.7363 7.85862 82.9651 7.94575C83.2077 8.052 83.4693 8.10775 83.734 8.10963V8.0975Z" fill="#1B55D0"/>
<path d="M86.6097 3.33862H87.8206L89.4794 7.71515L91.0657 3.33862H92.2038L89.546 10.1553C89.4492 10.3981 89.3523 10.6227 89.2494 10.823C89.1539 11.0118 89.0316 11.1856 88.8861 11.339C88.7411 11.4824 88.5679 11.594 88.3776 11.6668C88.1409 11.7523 87.8905 11.7934 87.639 11.7882C87.4791 11.787 87.3194 11.7768 87.1607 11.7578C87.0024 11.7389 86.8476 11.6981 86.7006 11.6364L86.8277 10.6652C87.0295 10.7482 87.2453 10.7915 87.4634 10.7927C87.6055 10.7952 87.7469 10.7726 87.8811 10.7259C87.9901 10.6844 88.0891 10.6202 88.1717 10.5377C88.2584 10.4548 88.3283 10.3559 88.3776 10.2464C88.4321 10.1371 88.4866 10.0096 88.541 9.87003L88.8861 8.9838L86.6097 3.33862Z" fill="#1B55D0"/>
</svg>
